<?xml version="1.0" standalone="no"?>
<!DOCTYPE svg PUBLIC "-//W3C//DTD SVG 1.1//EN" "http://www.w3.org/Graphics/SVG/1.1/DTD/svg11.dtd" >
<svg xmlns="http://www.w3.org/2000/svg">
<metadata></metadata>
<defs>
<font id="mordredregular" horiz-adv-x="879" >
<font-face units-per-em="2048" ascent="1638" descent="-410" />
<missing-glyph horiz-adv-x="838" />
<glyph horiz-adv-x="0" />
<glyph unicode="&#xd;" horiz-adv-x="0" />
<glyph unicode=" "  horiz-adv-x="838" />
<glyph unicode="&#x09;" horiz-adv-x="838" />
<glyph unicode="&#xa0;" horiz-adv-x="838" />
<glyph unicode="!" horiz-adv-x="227" d="M0 1599q24 0 65 7.5t56 7.5q22 0 39 -8q0 -33 -8.5 -89t-8.5 -87q0 -27 7 -54l-7 6q-10 -25 -10 -159q0 -47 1.5 -110.5t2.5 -119.5t1.5 -90.5t0.5 -97.5q0 -111 -8 -135l12 -13q-8 -27 -8 -59q0 -27 15.5 -99.5t15.5 -121.5q10 -10 10 -21q0 -10 -10 -20q-25 16 -68 16 q-34 0 -82 -10q-10 7 -10 27v43q9 17 10.5 43t2.5 51.5t10 42.5q0 14 -2 28t-2 17q0 10 10 18q2 21 2 84q0 91 -2.5 198t-8 265.5t-8 244t-2.5 138.5q0 3 -5.5 18t-8 22.5t-2.5 16.5zM6 25q5 26 5 74t5 69l150 -12q-4 -12 -4 -21q0 -6 5 -34t5 -44q0 -43 -41 -45z" />
<glyph unicode="&#x22;" horiz-adv-x="565" d="M29 1323l39 279q56 30 86 30q11 0 22.5 -4t26.5 -11.5t30 -14.5q1 -32 2 -66.5t1 -48.5q0 -40 -14 -61t-58 -21q-17 0 -66 -41t-69 -41zM301 1331l39 281q55 28 84 28q16 0 40.5 -11t41.5 -17v-113q0 -42 -13.5 -64t-56.5 -22q-17 0 -66 -41t-69 -41zM301 1331l39 281 q55 28 84 28q16 0 40.5 -11t41.5 -17v-113q0 -42 -13.5 -64t-56.5 -22q-17 0 -66 -41t-69 -41z" />
<glyph unicode="&#x26;" horiz-adv-x="1720" d="M-23 506q0 55 23 119q79 119 187.5 207t232.5 102q-4 19 -18.5 28.5t-26.5 11t-40.5 7t-39.5 14.5q-63 28 -112 82t-66 119q-11 46 -11 72q0 80 45 154.5t109 119.5q23 3 41 14.5t43.5 27.5t40.5 20q16 26 49 26q13 0 37 -4t35 -4q22 0 37 16q99 0 160.5 -9.5 t107.5 -45.5q34 -1 56.5 -22t49.5 -67t31 -52l15 -103l-166 -6q-5 79 -42 143t-102 101q-24 12 -69 12q-72 0 -164 -41q-135 -123 -135 -305q0 -45 4 -67q71 -175 213 -201q47 6 131 9.5t130.5 8t102.5 17.5v-117q-35 0 -136.5 9t-162.5 9q-53 0 -80 -4q-21 0 -34 -8 t-40.5 -29t-47.5 -26q0 -11 -3 -18.5t-7 -10.5t-8.5 -5t-16.5 -7q-174 -109 -174 -330q0 -37 2 -55q10 -11 13 -23.5t6 -36.5t9 -36q58 -118 161.5 -191.5t236.5 -73.5q82 3 166 21.5t153.5 60.5t100.5 109q51 9 61 67q35 83 35 162q0 61 -21 113q-32 8 -71 8 q-35 0 -62.5 -4.5t-71.5 -14t-77 -15.5t-62 -7v49q0 58 15 88q192 -41 405 -41q184 0 387 33q11 4 45 5t51 3q-8 -24 -8 -61q1 -18 1.5 -32.5t0.5 -37.5q-28 0 -78 12.5t-79 12.5q-9 0 -29 -4q-17 12 -47 12q-13 0 -41 -4t-41 -4q-20 0 -43 10q-22 -26 -31.5 -59.5 t-15.5 -85t-15 -82.5q-26 -23 -26 -82q-139 -229 -506 -279q-31 -10 -78 -10q-31 0 -78.5 8t-88.5 17t-74 16t-72 10q-41 24 -93 54t-92 64t-64.5 76t-25.5 99q-37 86 -37 162z" />
<glyph unicode="'" horiz-adv-x="102" d="M0 1335l37 281q39 20 72 20q16 0 45 -10t49 -10q1 -33 1.5 -59t0.5 -58q0 -40 -13 -61t-57 -21q-20 0 -69 -41t-66 -41z" />
<glyph unicode="(" horiz-adv-x="393" d="M0 932q4 43 6.5 71.5t5.5 47.5q4 21 29 55t29 41q11 22 22 52t19 50q10 20 19 35t15 35q2 6 8 42.5t15 53.5q11 20 32.5 46t37.5 48q24 36 42 65.5t31 49.5q11 8 29 14q4 0 14 -5t15 -5q6 0 17 4t15 4q13 0 15 -10q-10 -17 -18.5 -40t-16 -48.5t-12.5 -38.5 q-11 -25 -24 -47.5t-30 -54.5q-20 -44 -36 -86q-7 -18 -10.5 -43.5t-4.5 -28.5q-6 -17 -25.5 -46t-23.5 -42q-15 -40 -27 -104q0 -17 1 -32.5t2.5 -34t3.5 -44.5q6 -58 6 -119q0 -25 -7.5 -63t-9.5 -56q0 -21 23 -130t26 -126q6 -32 35 -104q7 -14 16.5 -41.5t20.5 -60.5 q12 -43 27 -68q55 -99 76 -148q6 -11 10 -26.5t9 -36.5t9 -39q8 -37 47 -113q-2 -8 -14 -8q-15 10 -29 10q-15 0 -32 -10q-3 -1 -13 -4.5l-10 -3.5q-2 0 -10 4q-19 28 -51 92q-14 28 -20 42t-17 32q-12 22 -18.5 35t-16.5 20q-5 5 -19.5 12.5t-15.5 10.5q-7 11 -25 53 t-18 51q4 18 4 41q-5 16 -26 37q-22 24 -27 37q-1 2 -12 26t-15 37q-4 18 -9.5 34t-10.5 32q0 2 -4 30.5t-6 39.5q-2 15 -7 34t-8 37q-24 132 -24 179q18 22 18 34q0 21 -20 41q-25 21 -25 27q0 43 -0.5 68.5t-1.5 56.5z" />
<glyph unicode=")" horiz-adv-x="424" d="M-2 -180q10 22 34 61t34 55.5t32 46.5t31 50q25 53 37 86q5 12 10 69.5t8 67.5q6 15 13 67t12 85q2 10 18.5 82.5t18.5 89.5q0 18 -2 63t-2 64q0 25 -4.5 60t-4.5 56q0 29 -14 115q-5 25 -14.5 56.5t-14.5 54.5q0 16 2.5 49t2.5 61q0 74 -13 107q-4 14 -16.5 30.5 t-20.5 32.5q-7 20 -14.5 39.5t-17.5 42.5q-3 8 -21 43.5t-26 52.5q-8 18 -21 55.5t-25 57.5q5 18 11 18q1 0 13 -4t15 -4q23 0 27 -2q5 -2 8.5 -6t11.5 -12q7 -10 23.5 -41.5t30.5 -52.5q9 -13 28.5 -34.5t24.5 -31.5q6 -9 20.5 -25.5t18.5 -23.5q8 -14 13 -21.5t6.5 -11.5 t1.5 -17t1 -18q2 -2 14 -8t15 -14q3 -5 5 -18.5t5 -18.5q1 -4 13 -15t16 -20q4 -18 4 -59q0 -9 -6 -29t-6 -29q3 -8 11 -24t11 -25q3 -12 6 -21.5t7 -25.5q1 -11 4.5 -23t7.5 -28l12 -24t6 -23q2 -16 2.5 -26t1.5 -21q0 -17 -0.5 -27t-1.5 -23q0 -54 -16 -116q0 -33 2 -85 t2 -75q-4 -23 -26 -75.5t-25 -71.5q-4 -40 -9.5 -91t-13.5 -71q-2 -4 -11 -34t-18.5 -55.5t-19.5 -35.5q-8 -9 -20 -31t-29 -51q-6 -12 -6 -21q0 -5 2 -24t3 -26.5t1 -22.5q-6 -32 -13.5 -68t-23.5 -59q-8 -6 -48.5 -24.5t-47.5 -18.5q-4 1 -10.5 7.5t-12.5 6.5t-12 3 t-10.5 5.5t-13.5 5.5q-27 0 -27 17z" />
<glyph unicode="," horiz-adv-x="276" d="M0 -117l37 281q61 31 86 31q10 0 19 -2.5t25.5 -11t35.5 -17.5q14 -77 14 -115q0 -88 -57 -88q-9 0 -25 4q-20 0 -69 -41t-66 -41z" />
<glyph unicode="-" d="M43 694q16 25 16 68q0 34 -10 82q7 12 68 12q24 -12 70 -12t69 -13q6 0 23.5 3.5t21.5 3.5q11 0 16 -11q25 -2 72 -2t163 9.5t179 9.5q11 3 20 7t18 6.5t19 2.5q0 -22 7.5 -64.5t7.5 -58.5q0 -20 -8 -37q-20 0 -85 9.5t-96 9.5q-23 0 -49 -6l4 4q-22 10 -55 10 q-14 0 -21.5 -0.5t-18.5 -1.5t-23.5 -2t-24.5 -2q-27 0 -51 8l-10 -12q-28 8 -60 8q-23 0 -43 -3.5t-50 -10t-64 -12t-64 -5.5q-12 -8 -21 -8q-8 0 -20 8z" />
<glyph unicode="." horiz-adv-x="276" d="M37 164q3 1 22.5 10t33.5 14t30 5q29 0 80 -29q1 -28 1.5 -49.5t0.5 -46.5q0 -58 -43 -58q-7 0 -27 4q-12 4 -18 4t-18 -2t-19 -2q-20 0 -37 13z" />
<glyph unicode="0" horiz-adv-x="1202" d="M-6 856q0 29 6 53l14 15q0 47 4.5 88.5t11.5 85t13 76.5q63 169 160.5 298.5t242.5 165.5q67 19 140 19q75 0 149.5 -20t132.5 -58q157 -173 222 -317q-7 -21 -7 -43q0 -33 15.5 -73l31 -80t15.5 -73q0 -8 -4 -32q-2 -46 -3 -164.5t-5 -165.5h-9q0 -70 -16 -130.5 t-39.5 -115.5t-52.5 -121q-14 -15 -62.5 -76.5t-82 -90.5t-83.5 -42q-86 -55 -208 -55q-152 0 -273 78q-35 22 -57 47.5t-64 80.5t-75 87q-11 20 -23.5 83.5t-44.5 84.5q0 46 -15.5 119.5t-15.5 107.5q0 29 2 45q-20 78 -20 123zM176 915q17 -62 20.5 -111t9 -156t13.5 -150 q24 -3 30 -19t6.5 -47.5t8.5 -42.5q15 -21 26 -49t23.5 -57.5t28.5 -53t39 -39.5q9 -31 29 -48t58.5 -41.5t59.5 -45.5q95 0 160.5 32t114.5 89q0 20 9.5 35t27 31t30 32t13.5 33q0 53 29.5 134.5t29.5 121.5q0 29 -8 53q29 116 29 209q0 58 -13 121q-8 13 -8 35 q0 6 1.5 18.5t3 24.5t1.5 18v7q0 26 -28 43q-10 42 -21 96.5t-20 86t-25 66.5q0 28 -25.5 59.5t-25.5 57.5q-70 129 -275 129q-60 -18 -88.5 -31.5t-36.5 -48.5q-80 -25 -116 -157q-89 -192 -111 -435z" />
<glyph unicode="1" horiz-adv-x="510" d="M-20 1305q0 20 20 26q29 11 73 44.5t70 45.5q50 21 89 58.5t86.5 85.5t91.5 73q11 15 30 15t32 -12t13 -33q-14 -98 -14 -211q0 -79 8 -217l-16 -23v-412l-14 -14q-5 -30 -5 -57q0 -31 9.5 -124.5t9.5 -135.5q0 -49 -8 -84q16 -25 16 -60q0 -9 -2 -30t-2 -31 q0 -36 18 -59v-136q-17 11 -43 11q-24 0 -66.5 -12.5t-66.5 -12.5q-17 0 -37 6q0 24 4 42t10.5 41.5t6.5 37.5q0 5 -4 23q2 35 17.5 255.5t15.5 350.5q0 13 -1 37.5t-2 44.5v299q0 121 -8 217q-32 16 -59 16q-36 0 -60.5 -12.5t-91.5 -54t-100 -48.5q-20 38 -20 50z" />
<glyph unicode="2" horiz-adv-x="1087" d="M0 1145q0 93 32.5 170t88.5 158q16 11 61 48.5t77 58t69 30.5q106 26 213 26q79 0 153 -17t133.5 -55.5t98.5 -99.5q0 -25 29.5 -68t29.5 -67q0 -14 -8 -29q16 -35 16 -77q0 -30 -8 -64t-17 -61l-22 -66q-8 -4 -12 -19t-8.5 -29.5t-16.5 -25.5q-18 -37 -53 -68.5 t-65.5 -60t-45.5 -65.5q-27 0 -42.5 -13t-36 -38.5t-39.5 -39.5t-45 -14q-88 -67 -139.5 -111.5t-98.5 -103.5q-5 -10 -29 -28.5t-24 -38.5q-9 -15 -27.5 -45t-32 -57t-21 -52.5t-7.5 -56.5q0 -23 6 -47q81 -29 188 -29q57 0 125.5 8t168.5 24t153 19q113 31 192 31l-8 -172 q-252 27 -514 27q-83 0 -124.5 -1t-115 -4t-144.5 -7t-114 -7q-12 25 -12 47q0 17 11.5 59t11.5 62q0 9 -4 29q5 12 22.5 22.5t17.5 22.5q0 2 -4 14q54 45 54 90q41 28 74 59.5t87.5 86t98.5 92.5l8 -6q49 45 80.5 74.5t72 67t72 63.5t72.5 55q5 14 35 69.5t42.5 82 t20.5 57.5q6 42 10 69.5t6.5 52t2.5 52.5q0 86 -41 139q-3 51 -30 93t-67 63q-34 43 -106 43q-14 0 -42 -2t-42 -2q-40 0 -64 10q-72 -11 -132 -59.5t-76 -116.5q4 -26 4 -35q0 -25 -11.5 -78.5t-11.5 -75.5q0 -34 10 -57q-14 -5 -43.5 -8t-54.5 -3.5t-57 -2.5z" />
<glyph unicode="3" horiz-adv-x="1139" d="M0 297q0 39 4.5 51t18.5 14q17 -10 43 -10q8 0 38 5t48 5q37 0 57 -28q-6 -18 -6 -35q0 -22 9 -40.5t29 -52.5t27 -59q58 -51 133.5 -78.5t151.5 -27.5q73 0 133 25q93 39 149 118t56 187l14 14q-4 23 -6 84.5t-6 94t-21 65.5t-55 49q-7 53 -55.5 87.5t-112.5 51.5 q-69 49 -182 49q-26 0 -80 -5t-76 -7q-12 -4 -21.5 -7.5t-20 -5t-23.5 -1.5v139q89 -14 155 -14q81 0 160 20q80 24 137.5 102.5t81.5 176.5q0 116 -45.5 195.5t-122.5 115.5q-60 8 -94 8q-99 0 -147 -51q-66 -109 -66 -238l-176 -8q0 29 6 60t16 53.5t24.5 50.5t25.5 49 q119 139 327 139q138 0 281 -55q66 -68 89 -95.5t36 -70.5q16 -59 16 -123q0 -99 -45 -155q-38 -45 -87.5 -78t-130 -74t-120.5 -67q28 -8 54 -11.5t64 -9t67 -15t51 -30.5q68 -12 124 -52.5t94 -99t52 -127.5q10 -42 10 -102q0 -86 -31.5 -160.5t-85 -137t-126.5 -124.5 q-133 -63 -334 -63q-99 0 -195 12q-126 55 -204.5 122.5t-106.5 174.5z" />
<glyph unicode="4" horiz-adv-x="1405" d="M0 524q0 29 24.5 88t24.5 93q26 3 34.5 21.5t20 50.5t27.5 44q25 40 69.5 125t82 138t88.5 92v14q26 35 72.5 82t69.5 73.5t42 65.5q57 19 136 93.5t85 78.5q16 5 48.5 20t61 25t50.5 10q49 0 49 -57q0 -9 -4 -41q-16 -82 -16 -211q1 -48 1.5 -88.5t0.5 -105.5 q0 -70 -6 -144q8 -37 8 -90q0 -30 -4 -99t-4 -104q0 -67 14 -120q19 2 107.5 5.5t139.5 8.5t105 22q-10 -20 -10 -34q0 -15 10 -45t10 -43q0 -26 -24 -46q-58 12 -119 21.5t-113 9.5q-55 0 -114 -16l8 -299q14 -22 18 -75.5t11 -78.5q-37 0 -104 -4t-109 -4q0 62 20 191 t20 192q0 23 -4 63l-14 21q-91 8 -209 8q-78 0 -158.5 -2.5t-160 -5t-156.5 -2.5q-74 0 -109 2q-20 26 -20 57zM188 625q0 -24 9 -39q71 -3 195 -10t183 -7q64 0 97 2q14 7 43 7q10 0 24.5 -1t26.5 -2q38 0 61 33v117q0 52 -14 90q0 51 14 66q0 132 -1 207t-5.5 162 t-15.5 184q-14 14 -31 14q-15 0 -41.5 -21t-38.5 -24q-144 -100 -198 -221q-35 -13 -65.5 -47t-60 -82t-51.5 -84h-8l-8 -60q-20 -9 -34 -27.5t-24 -46.5t-16 -42q0 -34 -20.5 -87.5t-20.5 -80.5z" />
<glyph unicode="5" horiz-adv-x="1153" d="M0 301q0 20 10 33q25 -15 49 -15q13 0 53.5 9.5t61.5 9.5q11 0 31 -4q0 -41 21.5 -94t23.5 -80q16 -31 37.5 -45t46.5 -19.5t59 -14t56 -26.5q126 0 220.5 24t157.5 95q6 20 35 60t29 65q0 17 -12 41q36 73 36 176q0 155 -73 268q-31 1 -50.5 25.5t-41 50t-50.5 27.5 q-106 49 -215 49q-85 0 -161 -33q-35 0 -87 -13t-77 -13q-9 0 -33 4q10 64 10 157q0 74 -12 228t-12 235q0 10 -5.5 34t-5.5 30q0 8 4 28h76q40 0 60 -14l16 14q79 0 128 -0.5t108 -1.5q118 0 206 25q170 0 275 22l8 -174q-18 -6 -33 -6q-22 0 -70.5 17.5t-72.5 17.5 q-15 0 -33 -6q-152 45 -295 45q-98 0 -170 -23q-22 -32 -22 -84q1 -16 1.5 -29.5t0.5 -35.5q0 -57 -25 -88q-8 -13 -8 -31q0 -19 20.5 -54t20.5 -54q0 -24 -25 -46q7 -10 7 -30q0 -8 -1 -19.5t-2 -21.5q0 -37 39 -47q129 45 258 45q104 0 201.5 -27.5t177.5 -83.5 q45 -50 77.5 -107.5t51.5 -124t19 -134.5q0 -61 -15 -109q-13 -83 -53.5 -147t-89 -109.5t-151.5 -130.5q-150 -41 -306 -41q-160 0 -295 47q-25 18 -73 65.5t-78 67.5q0 16 -5 29.5t-14.5 33t-14.5 34.5t-5 24z" />
<glyph unicode="6" horiz-adv-x="1135" d="M2 702q1 59 7.5 122.5t14.5 136t11 126.5q29 98 77.5 187.5t117.5 166t153 127t176 64.5q43 6 84 6q79 0 150 -25t126 -74t95 -120q19 -36 30 -129l-182 -8q6 27 6 49q0 35 -11.5 61.5t-35.5 63.5t-37 62q-60 26 -106.5 41.5t-91.5 15.5q-36 0 -64 -8q-176 -83 -231 -271 q-34 -54 -55.5 -108.5t-33.5 -113t-12 -118.5q-1 -31 -10.5 -95t-9.5 -87q0 -35 10 -63q11 10 63.5 70.5t84.5 74.5q65 49 142.5 77t162.5 28q97 0 186 -41q73 -35 129.5 -89t91.5 -126t39 -154l-6 -152q-12 -17 -22.5 -63.5t-20.5 -65.5q-18 -38 -60.5 -85t-56.5 -70 q-76 -56 -163.5 -85.5t-180.5 -29.5q-101 0 -184 35q-72 20 -140 67.5t-117 113.5t-65 140q-28 15 -28 58q1 11 1.5 20.5t0.5 24.5q0 23 -8 35q-27 89 -27 208zM213 477q0 -33 6 -69q24 -26 40 -78.5t26 -74t43 -36.5q43 -71 110.5 -111t153.5 -40q15 0 47 4q28 4 56 18 t49.5 33t48 48.5t41.5 47.5q8 22 21.5 59t21.5 58q22 54 22 121q0 76 -29 145q0 145 -137 246l-71 8q-54 23 -113 23q-92 0 -150 -52q-85 -83 -135.5 -168.5t-50.5 -181.5z" />
<glyph unicode="7" horiz-adv-x="1114" d="M0 1638q26 9 63 9q31 0 87 -4.5t104 -4.5q84 -4 127 -5t110 -2t156 -1q227 0 391 8l23 -22q0 -102 -21.5 -196t-58.5 -178.5t-86.5 -165.5t-112.5 -167q-69 -72 -129.5 -162t-101.5 -186q-22 -34 -35.5 -79t-19 -92.5t-7.5 -90.5q-8 -41 -8 -98q1 -28 1.5 -51.5 t0.5 -61.5q4 -16 4 -38t2 -40q-27 -10 -47 -10q-22 0 -64 10t-63 10q-26 0 -45 -10q-4 8 -4 23t10.5 39t10.5 37q0 19 -17 32q8 17 19 71t26 73q6 60 27 113.5t49 98t75 111.5t62 92q33 54 93 139t98.5 151.5t56.5 133.5q11 25 32 62t31.5 64.5t10.5 62.5q0 7 -4 37 q22 33 22 88q0 66 -30 108q-21 -4 -60 -4q-26 0 -83 4t-85 4q-77 0 -121 -24q-18 2 -55 2q-98 0 -180 -17.5t-246 -60.5q-5 36 -5.5 78.5t-2.5 109.5z" />
<glyph unicode="8" horiz-adv-x="1194" d="M-33 457q0 102 41 161q46 67 65.5 92t55 58t78.5 57q7 23 21.5 28t49 11.5t48.5 20.5q1 0 18 7t24.5 14t8.5 16q-22 12 -72.5 29.5t-78.5 32.5t-48 42q-49 27 -86 76.5t-47 101.5q7 216 125 307q23 25 47.5 37.5t75 35.5t69.5 38q64 16 164 16q106 0 174 -16 q144 0 215 -119q49 -36 78 -95.5t29 -123.5q0 -15 -4 -43q-15 -18 -19 -41t-4 -63q-44 -69 -123.5 -130.5t-156.5 -84.5q4 -13 16 -18.5t34.5 -10t31.5 -8.5q36 -29 101.5 -66t105.5 -67t65 -74q12 -35 29 -79.5t28 -87.5t11 -81q0 -46 -15 -86q-99 -268 -342 -344 q-94 -29 -209 -29q-126 0 -311 37q-93 35 -158 109.5t-102 175.5q-33 74 -33 164zM176 395q0 -93 45 -153q0 -48 26.5 -76.5t80.5 -62.5t71 -52q67 -20 140 -20q92 0 175 33.5t148 95.5q74 100 74 272q0 94 -21 186q-27 59 -66 106t-89.5 77t-115.5 45.5t-148 15.5 q-104 -17 -190 -97.5t-122 -182.5q0 -35 -4 -97t-4 -90zM250 1231q0 -85 31 -131q36 -75 109 -98.5t198 -34.5q81 0 130.5 51t92.5 133q14 72 14 127q0 88 -27.5 157.5t-90.5 112.5q-19 10 -42 14t-56.5 8t-49.5 7q-28 4 -41 4q-80 0 -137 -49t-121 -143q0 -25 -1.5 -44.5 t-3 -39.5l-3 -40t-2.5 -34z" />
<glyph unicode="9" horiz-adv-x="1130" d="M-6 1151q0 105 43 158q11 76 63.5 132.5t139.5 117.5q118 81 290 81q61 0 119.5 -13t107 -39.5t81.5 -65.5q35 -10 59 -37t54.5 -74t45.5 -65q19 -39 30 -90t25.5 -146.5t24.5 -134.5q2 -23 2 -68q0 -97 -15.5 -192.5t-45.5 -218.5q-22 -84 -35 -115q-16 -24 -52 -94 t-65 -111.5t-71 -66.5l-23 -37q-71 -33 -152.5 -52.5t-166.5 -19.5q-126 0 -213 43q-9 6 -58 40t-77 60t-48 64q-1 9 -13.5 33t-12.5 39q0 16 12 28q17 -14 45 -14q17 0 62.5 11t66.5 11q43 0 43 -49q0 -16 -6 -45q13 -47 60 -89t100 -66q38 -11 69 -11q82 0 153 48t142 126 q3 6 32.5 70t42.5 103.5t13 78.5q25 18 25 47q0 7 -1.5 17.5l-3 21t-1.5 17.5q0 24 18 43q-2 14 -2 45q0 16 2.5 56t3.5 51.5t2 33.5v10q0 56 -20 86q-197 -215 -400 -215q-47 0 -98 13q-22 0 -44.5 7t-51.5 20.5t-51 21.5t-47 8q-18 33 -67.5 75.5t-71 70t-21.5 79.5 q-14 3 -24 19.5t-13 31.5q-6 52 -6 111zM186 1182q0 -83 31 -150q0 -88 69.5 -157t162.5 -103q30 -6 59 -6q126 0 264 123q80 85 80 241q0 80 -23 170q-1 4 -18.5 50.5t-34 70.5t-41.5 33q-85 115 -221 115q-85 0 -174 -47q-50 -44 -75 -75t-25 -73q-54 -82 -54 -192z" />
<glyph unicode="=" d="M43 535q16 24 16 67q0 37 -10 82q7 12 68 12q21 -10 45.5 -11t48.5 -2t45 -11q6 0 21.5 3t23.5 3q11 0 16 -10q25 -2 72 -2t157.5 9t184.5 9q11 3 20 7t18 6.5t19 2.5q0 -22 7.5 -64.5t7.5 -57.5q0 -21 -8 -37q-20 0 -82 9t-99 9q-23 0 -49 -6l4 4q-22 10 -55 10 q-14 0 -21.5 -0.5t-18.5 -1.5t-23.5 -2t-24.5 -2q-27 0 -51 8l-10 -12q-28 8 -60 8q-31 0 -80 -10t-74 -15t-67 -5q-11 -9 -21 -9q-9 0 -20 9zM43 825q16 25 16 68q0 34 -10 82q7 12 68 12q21 -10 43 -11t48.5 -2.5t47.5 -10.5q6 0 22.5 3t22.5 3q10 0 16 -11q25 -2 72 -2 t163 9.5t179 9.5q11 3 20 7t18 6.5t19 2.5q0 -22 7.5 -64.5t7.5 -58.5q0 -20 -8 -37q-20 0 -85 9.5t-96 9.5q-23 0 -49 -6l4 4q-22 10 -55 10q-14 0 -21.5 -0.5t-18.5 -1.5t-23.5 -2t-24.5 -2q-27 0 -51 8l-10 -12q-28 8 -60 8q-23 0 -43 -3.5t-50 -10t-64 -12t-64 -5.5 q-12 -8 -21 -8q-8 0 -20 8z" />
<glyph unicode="A" horiz-adv-x="1735" d="M0 0q1 30 15.5 54.5t48 72t42.5 70.5q18 44 72 124.5t68 114.5q20 53 20 86q78 104 140.5 227.5t132.5 292.5q15 37 50 107.5t52.5 109.5t28.5 82q20 18 33.5 40.5t21 43t15.5 45t18 56.5q-63 8 -133 8q-52 0 -118 -6.5t-136 -17t-119 -15.5q-12 -2 -56.5 -15.5 t-74.5 -13.5q-10 14 -10 33q0 16 8 45t8 43q0 25 -14 37l14 14q81 -11 166.5 -18t188.5 -11.5t206 -6.5t164 -5q28 19 125 19q1 -30 13.5 -62.5t27 -71t16.5 -52.5q25 -16 25 -50v-20q0 -31 20 -47q15 -58 35 -108t57.5 -133.5t53.5 -123.5q26 -60 79.5 -201.5t97 -235.5 t97.5 -171q-6 -15 -6 -31q0 -18 9 -32t30 -37t31 -40t10 -38q35 -57 51.5 -87.5t28.5 -74.5q-51 10 -133 10q-38 0 -60.5 -0.5t-48.5 -1.5q-7 19 -14 73t-20.5 89.5t-49.5 62.5q4 26 4 35q0 30 -21.5 75t-25.5 63q-27 20 -76 20q-17 0 -26 -0.5t-25 -1.5t-40.5 -2t-51.5 -2 q-53 -11 -136.5 -14.5t-150.5 -8.5t-116 -20q-12 -2 -38 -3t-34 -5l-17 16q6 26 6.5 51t2.5 66h176v-8q99 -17 235 -17q113 0 240 10q0 47 -19.5 91t-54.5 106q-152 23 -340 23q-141 0 -325 -15q-26 -12 -35.5 -34t-17.5 -59t-13 -46q-7 -17 -25.5 -49.5t-26 -52t-7.5 -45.5 q-25 -26 -38 -58t-30.5 -94.5t-34.5 -91.5q0 -20 -12 -61t-12 -66q0 -7 4 -27q-29 -10 -64 -10q-10 0 -51 5t-70 5q-30 0 -61 -8zM545 801h80q62 -25 147 -25q38 0 112 6t111 6t56 -2l57 23q0 31 -37 94q-14 67 -46 133t-77 117q8 13 8 25q0 11 -7.5 18.5t-16.5 13.5t-19 16 t-10 21q0 13 8 29q-10 16 -23 59t-25.5 63.5t-39.5 24.5q-4 -32 -38.5 -83.5t-41.5 -77.5q-7 -61 -51 -95q-17 -54 -63 -145t-61.5 -127t-22.5 -94z" />
<glyph unicode="B" horiz-adv-x="1100" d="M0 1593q145 45 307 45q218 0 398 -77q32 -23 59.5 -59t62.5 -87q15 -35 15 -76q0 -33 -7 -62t-24 -84.5t-20 -72.5q-37 -43 -78 -75.5t-79 -54.5t-112 -60q10 -15 35 -15h25q17 0 28 -8q127 -11 226.5 -72.5t158.5 -168.5l-6 -9q4 -22 12.5 -42t21.5 -44t24 -45 q0 -46 -11.5 -111t-11.5 -87q-24 -91 -83 -153.5t-136.5 -102.5t-171.5 -72q-68 -8 -156 -8q-61 0 -182 6t-178 6q-74 0 -109 -4q17 44 19 104.5t4 122t20 107.5q0 19 -11 43t-11 31q0 17 22 28q6 61 6 113q0 46 -6 136t-6 142v367q-27 33 -27 82q0 10 2.5 36t2.5 58 q0 37 -11.5 109.5t-11.5 113.5zM190 995q10 -28 26.5 -37.5t43.5 -9.5q11 0 35 2t35 2q25 0 45 -8q258 93 287 250q0 50 -13.5 118t-15.5 95q-38 83 -116.5 124.5t-172.5 41.5q-54 0 -102 -12q-29 -25 -29 -103q0 -152 -4 -255.5t-19 -207.5zM199 334q22 -32 22 -90v-49 q0 -27 6 -56q40 -61 148 -65q50 -23 110 -23q53 0 125 15q62 22 116.5 65t86.5 100.5t35 124.5q14 43 14 95q0 54 -14.5 110t-36.5 119q-70 81 -127 125q-59 30 -136.5 47.5t-154.5 17.5q-103 0 -180 -36z" />
<glyph unicode="C" horiz-adv-x="1702" d="M0 680q0 112 13 204.5t42 237.5q24 15 48 57t42.5 71.5t51.5 39.5q12 48 61 86.5t107 69.5q15 24 34 37t55.5 31.5t51.5 31.5q197 92 430 92q64 0 135 -6q74 -17 115.5 -29.5t81.5 -41.5l35 -7q7 -4 37 -27.5t51.5 -34.5t44.5 -11q159 -132 176 -254q-27 -13 -72 -13h-51 q-40 0 -68 -8q-61 125 -119 203.5t-147 91.5q-81 72 -225 72q-33 0 -99 -4q-18 -8 -42.5 -10t-47 -3.5t-39.5 -9.5q-129 -29 -233 -124t-172.5 -226t-93.5 -270q-10 -32 -10 -54q0 -20 11 -70.5t11 -80.5q0 -23 -4 -35q11 -25 24.5 -67t26.5 -85.5t27 -80.5t35 -76 q23 -21 72 -79t87 -92.5t86 -49.5q53 -48 138.5 -72.5t173.5 -26.5h147q6 15 41 15q14 0 23 8q90 21 239 104q27 15 51.5 49.5t45.5 79t36 72.5q17 8 33 8q17 0 48 -10t46 -10q17 0 27 4q4 -16 4 -21q0 -22 -8.5 -35t-34 -43.5t-31.5 -44.5q-48 -48 -100 -77.5t-152 -75.5 q-167 -78 -381 -78q-83 0 -177 13t-183 37.5t-162 53.5q-24 22 -101 80t-119.5 104.5t-59.5 108.5q-17 10 -23 24.5t-17.5 45.5t-23.5 43q0 26 -7.5 49.5t-22 61.5t-19.5 57z" />
<glyph unicode="D" horiz-adv-x="1638" d="M0 1546q14 25 43 25q11 0 18.5 -0.5t16.5 -1.5q19 0 33 10q16 0 50.5 11.5t51.5 11.5q13 0 33 -9q41 31 114 31q23 0 37 -0.5t31 -1.5q63 0 100 16h43q119 0 221.5 -16t199 -48.5t192.5 -84.5q65 -52 118.5 -94.5t95.5 -90.5t70 -114q26 -48 48 -113t33.5 -130t11.5 -130 q0 -47 -11 -106q-11 -23 -22 -84.5t-27 -91.5q-26 -26 -58.5 -81.5t-48 -77t-51.5 -44.5q-59 -76 -136.5 -136t-168.5 -103.5t-185 -66.5t-200 -26q-50 0 -139 4.5t-181 11t-164 10t-146 3.5q16 84 16 194q0 109 -16 189l22 28v379q5 8 6 27t2 41.5t6 34.5q-22 41 -22 98 q0 22 4 66t4 65q0 37 -8 68q0 159 -14 247q-23 23 -23 80zM199 860q0 -21 5 -125t5 -170v-45q8 -49 8 -137.5t14 -145t64 -106.5q159 -59 330 -59q204 0 340 88q50 9 89.5 33.5t69.5 59t59.5 78.5t57.5 87q96 141 96 338q0 117 -30 274q-25 63 -56 135.5t-53 112.5 q-33 25 -90.5 84.5t-95.5 92.5t-90 54q-29 0 -87 17.5t-81 17.5q-13 0 -29 -4l-29 19q-56 4 -80 4q-79 0 -241 -31q-65 -13 -98.5 -47t-43.5 -81t-10 -118v-90q0 -62 -8 -109q-14 -19 -14 -53q0 -13 4 -47t4 -59h-8q-2 -23 -2 -68z" />
<glyph unicode="E" horiz-adv-x="1102" d="M0 1556q0 28 6 60q123 -19 242 -19q58 0 146.5 5t194 14.5t199 15.5t189.5 6l14 -14q-18 -23 -18 -55q0 -9 2 -29t2 -29q0 -22 -8 -38q-153 24 -232 34.5t-168 10.5q-18 0 -29.5 -0.5t-25.5 -1.5q-33 16 -72 16q-30 0 -81 -10.5t-80 -10.5q-19 0 -39 5q-31 -36 -31 -115 v-55q0 -57 -14 -89q0 -30 -0.5 -50.5t-1.5 -45.5q0 -54 32 -80q183 -10 207 -14q64 1 198.5 22t205.5 21q39 0 75 -6q-6 -12 -6 -37q1 -12 1.5 -23t0.5 -26q0 -40 -32 -47h-23q-12 22 -74 22q-96 25 -233 25q-72 0 -182 -5t-132 -5l-36 -23q0 -19 -1.5 -53.5t-3.5 -69 t-2 -53.5q0 -73 15 -127q-15 -43 -15 -92q0 -64 23 -158q-12 -18 -12 -41q0 -11 4 -36t4 -40q0 -27 -12 -45q16 -23 16.5 -76.5t8.5 -78t48 -33.5q66 -14 142 -14q50 0 174 13.5t180 14.5q35 37 59 37q13 -6 27 -6q12 0 61.5 17.5t92.5 17.5q14 14 28 14q15 -21 15 -45 q0 -17 -7.5 -46.5t-10.5 -45t-3 -39.5h-92h-907q-13 23 -13 47q0 21 10.5 56.5t10.5 54.5q0 27 -17 49q0 17 15 47q1 48 5 126t7 143.5t5.5 142.5t2.5 122q0 167 -12 285q-18 18 -18 45q0 14 13 46.5t13 49.5q0 24 -22 43q4 19 4 56q0 47 -16.5 124t-16.5 119z" />
<glyph unicode="F" horiz-adv-x="1104" d="M0 1624q31 -3 115 -11t136 -11t93 -3q104 0 195 17q30 -10 57 -10q21 0 61 6t62 6q31 0 55 -8q41 20 125 20h62q63 0 92 8q0 -39 -10.5 -87t-10.5 -72q0 -11 4 -35q-128 40 -271 60t-286 20q-135 0 -243 -15q-31 -42 -31 -114q1 -16 1.5 -30t0.5 -36q0 -67 -23 -108 q15 -15 15 -37q0 -16 -4.5 -36t-4.5 -30q0 -32 31 -45q39 -8 90 -8q38 0 137 11t156 11q38 0 76 -6q16 15 65 15q24 0 37 8q26 -4 33 -4q19 0 67.5 13t88.5 13v-141q-39 0 -66 -0.5t-61 -1.5q-66 0 -107 25q-39 -11 -100 -11q-32 0 -125.5 9.5t-136.5 9.5q-106 0 -182 -45 q-9 -37 -9 -90q1 -20 2 -44t2 -43t1.5 -31.5t0.5 -37.5q0 -58 -14 -100q17 -69 22.5 -137.5t8.5 -168.5t8 -157q21 -55 21 -154l-228 -8q1 14 10 66t9 81q0 30 -13 60q23 27 23 82v98v88l-8 930q-15 22 -19 84q1 15 1.5 27t0.5 32q0 50 -12 76z" />
<glyph unicode="G" horiz-adv-x="1733" d="M0 735q0 33 6 100t6 99q0 19 -4 55q28 30 41.5 81t26 99t39.5 76q46 50 85 93t78.5 80t89.5 68.5t101 45.5q45 33 98 50t144 42q71 21 176 21q31 0 63.5 -1t72 -3t75.5 -3q26 -18 61 -27.5t76 -19t68 -24.5q28 -9 86 -49t92 -54q53 -37 88.5 -99t46.5 -134 q-17 -2 -66.5 -8t-74.5 -6q-34 0 -66 6q-2 3 -28.5 65.5t-51.5 95.5t-61 46q-52 75 -143.5 117t-192.5 42q-26 0 -80 -8q-123 -23 -234 -68q-32 0 -61.5 -15t-63.5 -40t-65 -43q-25 -20 -47 -50.5t-47 -69.5t-49 -64q0 -25 -9 -42.5t-27 -38.5t-28.5 -37t-13.5 -38 q0 -61 -11.5 -157.5t-11.5 -122.5q0 -83 37 -140q7 -92 30 -159t77 -109q66 -105 163.5 -190t213.5 -113q88 -21 186 -21q107 0 206.5 25.5t190.5 78t158 128.5q45 68 45 180q0 80 -25 203l-20 20q-88 -8 -173 -14.5t-121.5 -9t-101 -11.5t-118.5 -22l-86 8l6 150 q56 0 146 -10.5t137 -10.5q39 0 75 6q93 -14 195 -18t246 -4q2 -23 2 -70q0 -26 -1.5 -72l-3 -92t-1.5 -73q0 -70 4 -105q-30 -24 -98 -87.5t-118.5 -100t-109.5 -56.5q-23 -30 -45.5 -36.5t-82.5 -17.5t-85 -32q-100 -20 -219 -20q-225 0 -430 84.5t-326 245.5 q-8 42 -29.5 85t-42.5 86t-28 85q-37 57 -37 149z" />
<glyph unicode="H" horiz-adv-x="1427" d="M0 1624h227q-2 -71 -5 -115.5t-6 -97t-3 -104.5q-12 -36 -16 -125q0 -52 2 -74q40 -39 112 -39q18 1 32.5 1.5t37.5 0.5q45 0 86 -14q41 8 90 8q46 0 116 -5t87 -5q70 0 127 16q16 -2 49 -2q138 0 223 39q-6 49 -6 102q1 33 1.5 59.5t0.5 69.5q0 128 -33 197q8 8 8 20 q0 13 -7 33.5t-7 26.5q0 17 29 22h192q0 -76 -13 -217t-13 -196q0 -26 4 -72q-12 -131 -12 -313q0 -110 4 -324q2 -76 27.5 -226t25.5 -235q0 -30 -2 -47q-19 -10 -41 -10q-12 0 -32 4t-32 4q-22 0 -34 -6q-10 6 -19 6q-6 0 -19 -4t-20 -4q-9 0 -22 10q3 52 20 206t17 247 q0 116 -23 217q-92 10 -227 10q-232 0 -473 -41h-33q1 23 1.5 40t0.5 32q0 22 -16 39q0 27 14 37q106 -12 194 -22.5t153.5 -15.5t131.5 -5q136 0 254 28q14 27 14 58q0 25 -7 67t-7 56l-74 22h-733q-16 -16 -47 -16q-10 1 -18 1.5t-21 0.5q-49 0 -61 -41q2 -25 2 -74 q0 -58 -3.5 -127.5t-4.5 -105.5v-19q0 -92 20 -153q-16 -37 -16 -87q0 -47 16 -90q-14 -8 -14 -20q0 -6 11 -24t10 -29q0 -41 10 -93t10 -67q0 -21 -4 -31q-44 -10 -111 -10q-28 1 -51.5 1.5t-59.5 0.5q12 96 21 205t13.5 225t4.5 244q0 116 -8 338q-16 21 -16 59l22 31 q4 32 4 49q0 33 -6.5 67t-16 71t-17 74t-7.5 69q0 27 6 59q-14 105 -14 133z" />
<glyph unicode="I" horiz-adv-x="299" d="M0 1626q11 -8 33 -8q20 0 63 10t58 10q32 0 32 -30q0 -20 -8 -41q-11 -100 -13 -162.5t-7 -235.5q10 -5 10 -14q0 -4 -8 -15t-8 -20q9 -102 12 -420t6 -449t20 -226q-43 -9 -84 -9q-35 0 -57 9q-4 -7 -39 -7q8 42 13.5 70t10.5 63t5 62q0 30 -6 57q20 82 20 338 q0 89 -0.5 135t-1.5 112.5t-2.5 135t-1.5 115.5q0 68 2 90q-5 19 -6.5 56.5t-2.5 67t-7 54.5q-2 102 -33 252z" />
<glyph unicode="J" horiz-adv-x="575" d="M0 102q54 26 141 33q46 30 84.5 61t57.5 64q43 49 63 114t24 124.5t6 163.5t9 159q-6 104 -8.5 165.5t-4.5 137.5t-4 141t-6 169q-9 19 -13.5 59.5t-7 75t-15.5 63.5q25 0 71 -2t66 -2q31 0 47 4q-14 -21 -14 -65q0 -14 2 -44t2 -44q0 -46 -17 -72q9 -6 9 -21 q0 -6 -4 -22.5t-5 -22.5q0 -40 -0.5 -57.5t-1.5 -39t-2.5 -42.5t-1.5 -39q0 -51 17 -92q-5 -20 -5 -56t-6 -52q13 -165 13 -228q0 -167 -52 -274q5 -20 5 -23q0 -25 -30.5 -63.5t-33.5 -65.5q-13 -3 -18.5 -26.5t-8.5 -28.5q-33 -30 -68.5 -77t-59.5 -71t-72 -40 q-13 -23 -30 -33.5t-42 -18.5t-37 -14q-7 12 -16 23.5t-17.5 28t-12 27.5t-3.5 23z" />
<glyph unicode="K" horiz-adv-x="1434" d="M0 0q45 161 45 494v176v71q14 43 14 93q0 59 -14 127q16 11 16 24q0 10 -8 28t-8 27q4 38 4 58q0 42 -5.5 86t-11 88.5t-5.5 87.5q0 55 10 96q-14 37 -14 111q0 41 -9 63l228 8q1 -12 1.5 -22t0.5 -25q0 -54 -5 -96t-13 -97.5t-14.5 -113.5t-6.5 -92q0 -40 6 -84 q-16 -40 -16 -113q1 -26 1.5 -49t0.5 -76q16 -4 22 -4q27 0 45.5 18.5t46.5 56.5t45 50q23 37 50.5 63t70.5 61t70.5 62t50.5 60q36 17 65.5 58.5t54.5 73t62 42.5q16 36 81 106t85 113q52 0 133 4t125 4v-14q-34 -37 -72.5 -67t-81 -59.5t-89.5 -63.5q-5 -26 -37 -48.5 t-39 -42.5q-26 -14 -59 -38t-73.5 -55.5t-64.5 -49.5q-26 -37 -64.5 -72t-95.5 -80.5t-94.5 -82t-62.5 -80.5q0 -14 7 -28t16 -24t25 -23t19 -15q10 -5 34.5 -38.5t49.5 -45.5q97 -110 318 -256q17 -28 38.5 -52t49 -48t58.5 -49t50 -48q49 -30 98 -68t116 -91t116 -85v-6 h-307q-84 114 -197 180q-4 33 -26 55t-56 38q-25 26 -58 64.5t-62.5 61.5t-61.5 31q-18 39 -53 70t-98.5 76.5t-84.5 66.5q-19 13 -62 64t-75 51q-15 0 -28 -8v-410l14 -14q-4 -38 -4 -53q0 -46 6 -83.5t20.5 -104.5t16.5 -79q-42 -16 -111 -16q-26 1 -47.5 1.5t-54.5 0.5 h-37z" />
<glyph unicode="L" horiz-adv-x="1227" d="M0 1630q126 12 180 12q24 0 70 -4q-4 -86 -12 -189t-12 -164t-8.5 -149t-6.5 -212q0 -269 5 -436t26 -367q10 -31 41 -31q8 0 29 4t32 4q29 0 41 -22q43 -6 86 -6q51 0 112.5 7t107.5 12.5t104 11t120 5.5q32 16 70 25.5t101 20.5t75 14l8 -166q-32 -2 -100 -2 q-71 0 -133.5 2.5t-126 6t-143.5 7.5l-15 -14h-637q15 31 15 78v47q0 34 8 63q17 130 24 204.5t7 160.5q0 128 -23 233q23 14 23 50q0 11 -1.5 24.5t-3 24t-2.5 16.5q-6 75 -10 148t-8 133.5t-12 130.5q8 24 8 57q0 36 -12.5 106.5t-12.5 116.5q-14 9 -14 37z" />
<glyph unicode="M" horiz-adv-x="2013" d="M0 0q23 174 32 347t21 523q0 29 -0.5 43.5t-1.5 36.5t-2.5 48.5t-1.5 48.5q0 54 12 104l-14 14q0 33 1.5 92.5l3 119t1.5 93.5q0 91 -14 146q75 16 129 16q59 0 141 -16q42 -60 118.5 -198.5t121 -210.5t106.5 -138q0 -22 15 -36.5l30 -29t15 -36.5q12 -42 45 -80.5 t67 -79t45 -80.5q17 -16 38 -52t36 -51t45 -16q28 32 61 80t69 104t65.5 95.5t64.5 73.5q16 24 43.5 83.5t49.5 97t57 68.5q0 29 21.5 49.5t23.5 40.5q27 30 50.5 67.5t49 85.5t45.5 80.5t43 59.5q22 45 82 45q21 0 62 -6t57 -6q17 0 31 6q1 -44 1.5 -80t0.5 -86 q0 -68 -17 -135q13 -21 13 -55q0 -20 -7.5 -65.5t-7.5 -59.5q0 -35 17 -59q-9 -54 -12 -109t-3 -111q0 -84 7 -231.5t8 -183.5q1 -69 8.5 -136.5t23 -160t21.5 -146.5q-26 11 -47 11q-26 0 -73 -10.5t-73 -10.5q-12 0 -32 4q6 51 6 160q0 82 16 131v623q-18 12 -18 36 q0 19 10 39q8 75 8 160q0 156 -31 295q-30 -29 -57.5 -71.5t-60.5 -92.5t-62 -78q-45 -53 -88.5 -124t-91 -148t-82.5 -121q-16 -19 -43.5 -71.5t-52.5 -69.5q-35 -36 -69 -105.5t-63 -124t-69 -86.5q-40 31 -72.5 79t-73.5 120t-63 100q-37 50 -67 97t-65.5 105.5t-64 105 t-59.5 88.5q0 15 -12.5 27.5t-15.5 17.5q-39 0 -45 37q4 12 4 16q0 9 -6.5 15.5t-19 14t-17 11t-7.5 16.5q-29 44 -92 135t-96 144l-22 -31q8 -92 8 -289q0 -153 14 -239l-14 -15v-270q16 -16 16 -41q0 -12 -0.5 -25.5t-1.5 -31.5q0 -58 -0.5 -98.5t-1.5 -90.5 q0 -50 4.5 -94t13.5 -76q0 -29 14.5 -89t14.5 -99h-217z" />
<glyph unicode="N" horiz-adv-x="1569" d="M0 23q8 74 12.5 146t7.5 155.5t5 167.5t4 196q16 76 16 205q0 127 -16 199q20 30 20 75q-2 26 -4 44t-4 35.5t-4 43.5q0 193 -23 320q26 0 83 7t85 7q67 0 88 -53q15 -36 47 -74t64.5 -76t44.5 -71q31 -19 53.5 -54t50 -80t52.5 -65q26 -54 65.5 -103.5t98 -113.5 t105 -123t71.5 -109q21 -7 37.5 -31.5t30 -42.5t42.5 -22q42 -46 112.5 -139.5t98 -128.5t78.5 -86l14 14v305q0 177 -4.5 330.5t-18 320.5t-36.5 320q10 7 10 21q0 7 -4 24t-4 25q0 24 35 26q16 -14 63 -14q20 1 36 1.5t38 0.5q45 0 45 -31q0 -13 -16 -53q-13 -31 -17 -65 t-4 -83.5t-3.5 -82.5t-16.5 -64q10 -20 10 -37q0 -20 -12.5 -58.5t-12.5 -59.5q4 -70 4 -215q0 -57 -2 -174t-4 -190t-4 -177t-2 -164q0 -43 0.5 -86t1.5 -86q-4 -1 -27 -7.5t-34 -6.5q-21 0 -35 14q-13 42 -53 81t-80 77.5t-53 79.5q-12 13 -34.5 29.5t-33.5 31.5t-12 41 q-144 164 -379 467q-7 9 -39 33.5t-48 45.5t-16 54q-3 16 -13.5 22.5t-28.5 12.5t-26.5 12.5t-8.5 20.5t4 24q-25 25 -55.5 54t-51 51.5t-35.5 42.5q-80 110 -117 155t-98 82q-16 -37 -16 -98q0 -49 10 -102q2 -154 9.5 -433t13.5 -518q12 -47 16.5 -105.5t11.5 -131.5z" />
<glyph unicode="O" horiz-adv-x="1862" d="M-12 813q0 66 12 125q27 120 92 235t160.5 206.5t208.5 144.5q87 41 136.5 61.5t118.5 36.5t150 16q33 -2 95 -5t101 -8t80.5 -18.5t76.5 -39.5q41 -4 82.5 -23.5t84 -48t80.5 -53.5t72 -39q15 -21 40 -53t43.5 -61t29.5 -62q55 -75 88 -171t33 -192q0 -92 -35 -168 q-3 -85 -43 -175.5t-100.5 -171.5t-127.5 -142q-47 0 -63 -35q-33 -13 -99 -51t-90.5 -51.5t-75 -30t-98.5 -16.5q-70 -29 -151 -29q-56 0 -106 10.5t-143 35t-136 32.5q-16 34 -39 41t-57 14t-54 31q-4 24 -20.5 33t-47.5 16.5t-43.5 17.5t-15.5 39q-39 24 -66.5 59t-49 77 t-41 85t-41.5 76q-41 115 -41 252zM205 877q1 -35 1.5 -65t0.5 -87q34 -161 106 -311q0 -45 49.5 -93.5t57.5 -70.5q21 -21 35.5 -31t29.5 -19t30 -21.5t26 -28.5q72 -41 164.5 -65t187.5 -24q148 0 262 60q36 35 108.5 82t110.5 82q15 28 59.5 103.5t66 129t24.5 115.5 q22 96 22 180q0 222 -129 471q-46 91 -152 168.5t-216 108.5q-31 6 -52 6q-15 0 -25 -0.5t-22 -1.5q-36 0 -61 16q-87 -8 -169 -26.5t-153 -51.5q-178 -114 -213 -213q-34 -21 -49 -51.5t-27 -81.5t-22 -74q-51 -70 -51 -206z" />
<glyph unicode="P" horiz-adv-x="1057" d="M0 1585q64 1 147.5 14.5t156 25.5t142.5 13q119 0 220 -45l65 -8q76 -42 129.5 -84.5t71.5 -93.5q32 -26 53 -79t21 -114v-49q0 -76 -37 -121q-16 -72 -53 -124t-74 -84t-133 -109q-73 0 -134 -51q-110 -17 -184 -17q-72 0 -186 17q-17 -33 -17 -70q0 -8 8 -61.5t9 -77.5 q-12 -55 -12 -109q0 -49 17 -160.5t17 -174.5v-23q-22 -6 -73 -6q-88 0 -146 20q39 98 39 240q0 28 -2 85t-2 87q0 71 8 131q0 425 -20 649q6 22 6 49q0 20 -0.5 31t-1.5 28.5t-2 45t-2 55.5q-14 33 -20 90.5t-11 79.5zM197 862q0 -39 11 -61.5t24 -33t55 -40.5 q52 -12 102 -12q92 0 178 40.5t158 112.5q24 44 42.5 96.5t28 105t9.5 99.5q0 140 -74 232q0 16 -8 27.5t-24 25.5t-24 24.5t-9 24.5q-26 10 -45.5 17t-34 14.5t-25.5 21.5q-34 3 -88.5 11t-95.5 8q-96 0 -144 -64q-36 -172 -36 -450v-199z" />
<glyph unicode="Q" horiz-adv-x="1851" d="M0 799q0 21 4 65q15 123 55.5 227t108 192.5t156.5 158t204 121.5q30 20 102 41t93 30q190 15 231 15q183 0 297 -66q43 -4 82 -24t78 -50t77.5 -58.5t78.5 -45.5q91 -128 139.5 -223t48.5 -207q29 -46 29 -101q0 -37 -19.5 -115t-19.5 -114q0 -31 4 -45 q-9 -15 -50.5 -90.5t-77 -130.5t-80 -101t-97.5 -71q-18 -31 -52.5 -47.5t-79.5 -36t-67 -45.5q-77 -49 -186 -49q-12 -23 -53 -23q-9 1 -16.5 1.5t-18.5 0.5q-19 -2 -26 -10.5t-7 -40.5q0 -39 5 -68.5t20 -100t22.5 -109.5t7.5 -85l-178 -6q-8 15 -8 35q0 16 8 52t8 53 q13 12 13 34q0 13 -0.5 20.5t-1.5 16.5q0 35 24 49q-2 26 -2 79.5t-4 78.5q-24 -6 -47 -6q-37 0 -98 24.5t-99 24.5q-17 15 -60 27.5t-63 29.5q-35 0 -59.5 16t-78 59t-87.5 55q-260 291 -260 563zM217 840q0 -139 51 -232q0 -32 7 -54.5t23 -59.5t27.5 -66.5t14.5 -62.5 q92 -107 180 -173.5t203 -99.5q20 -6 72 -6q31 0 49 -14q10 17 10 34q0 18 -10 58t-10 61q0 23 4 33q0 26 -19.5 79.5t-19.5 76.5q0 30 16 51q12 0 32.5 2t34 3t33.5 3q43 0 78 -16q-5 -36 -19.5 -115.5t-22 -132.5t-7.5 -117q17 -10 45 -10q32 0 88.5 22t73.5 25 q98 31 164 94.5t137 169.5q0 23 8.5 40t24 35.5t23.5 33t8 35.5q20 25 26 81t17 76q2 37 2 111q-4 244 -80 379q-11 14 -27 61t-31 71t-49 32q-46 84 -118 134t-162 72.5t-191 22.5q-96 0 -209 -23q-18 -18 -48.5 -28.5t-58.5 -20t-44 -28.5q-94 -61 -167 -158.5t-93 -200.5 q-66 -117 -66 -278z" />
<glyph unicode="R" horiz-adv-x="1303" d="M0 1556q43 44 96 54.5t147 12.5t140 15q18 2 51 2q101 0 213 -47q174 -8 328 -198q0 -24 20.5 -57t24.5 -54q-4 -24 -4 -43q0 -14 2 -46t2 -48q0 -75 -37 -105q0 -24 -11.5 -47t-34.5 -52t-35 -46.5t-19 -42.5q-37 -54 -92.5 -89t-115.5 -60t-138 -58q6 -33 32 -57.5 t57.5 -52t43.5 -58.5q34 -20 69.5 -55.5t65 -63t63.5 -43.5q0 -15 5.5 -18.5t28.5 -9.5t30 -17q33 -45 97.5 -89.5t121.5 -85t90 -89.5q-27 8 -65 8q-24 0 -70 -4t-68 -4q-31 0 -56 8t-44 28t-29 58q-38 11 -64.5 39.5t-58.5 66t-65 50.5q-13 33 -42.5 58t-63.5 50t-48 54 q-34 31 -59.5 52t-84.5 68.5t-85 69.5q-38 10 -131 17q-29 -62 -29 -154q0 -20 5.5 -101.5t6.5 -113.5q9 -36 13.5 -91.5t12 -89t28.5 -69.5q-46 -10 -123 -10q-31 1 -56 1.5t-57 0.5q16 85 22 180t6 222t1 194q14 14 14 35q0 15 -7 41.5t-7 34.5q1 25 1.5 46t0.5 54 q0 120 -6 250t-16.5 275t-16.5 224zM190 737q37 -51 113 -51q27 0 51 6q11 8 31 8q11 0 35 -4t35 -4q31 0 45 29q20 -4 28 -4q31 0 74.5 29.5t52.5 33.5q32 18 47.5 38.5t44.5 69t48 66.5q0 46 17 122.5t17 115.5q0 13 -4 41q-23 105 -88 199q-17 9 -44.5 37.5t-48.5 43.5 t-54 15l-23 22q-46 0 -106 6.5t-92 6.5q-64 0 -111 -27q-55 -23 -55 -96q0 -14 2 -44t2 -42q0 -28 -8 -47h-9v-570z" />
<glyph unicode="S" horiz-adv-x="1063" d="M-23 414q0 38 23 61l162 -14q-4 -19 -4 -53q0 -63 20.5 -118t61.5 -128q15 -13 46 -22t46 -16.5t22 -31.5q32 0 86.5 -18.5t79.5 -18.5q23 0 39 8q24 0 67 25t74 25q26 23 51 46t40.5 48.5t15.5 60.5q37 42 37 125q0 95 -45 185q-16 1 -24.5 9.5t-21 28t-18.5 25.5 q-140 109 -222 165.5t-181 88.5q-4 12 -11 20.5t-21 18.5t-24 18q-26 0 -41.5 14t-38.5 42.5t-40 35.5q-100 97 -103 250q0 42 10 97q58 74 107.5 124t112.5 80q20 0 39.5 7.5t39.5 14.5t41 7q42 23 111 23q31 0 94 -9q46 -1 95 -17.5t85.5 -40.5t68 -63.5t42.5 -82.5 q1 -13 8.5 -37.5t7.5 -38.5q0 -18 -10 -31l-176 6q-8 47 -15 87t-25 70.5t-58 41.5q-13 0 -21 5.5t-15.5 15.5t-14.5 14q-43 12 -86 12q-70 0 -162 -39q-97 -59 -113 -248q0 -61 33 -111t80 -73q34 -42 61.5 -64t67.5 -22q123 -88 178 -125.5t139 -79.5q0 -7 3.5 -13 t9.5 -10t8 -6q25 0 45 -14t41 -35q4 -22 30 -42.5t33 -34.5q39 -48 50.5 -105t13.5 -139v-78q-25 -25 -47 -84t-32.5 -79t-47.5 -36q-42 -45 -102 -77.5t-127 -48t-140 -15.5q-106 0 -197 35q-116 10 -199 82t-120 188q-23 71 -23 109z" />
<glyph unicode="T" horiz-adv-x="1661" d="M0 1430q6 21 6 47q0 16 -0.5 25t-1.5 21.5t-2.5 27t-1.5 26.5q0 32 8 53q38 -8 144 -13.5t152 -9t93 -20.5q167 0 311 3t289.5 9t268 14.5t317.5 24.5q-22 -93 -22 -186q-16 5 -70 10.5t-86.5 14.5t-54.5 34q-25 -10 -43 -10q-24 0 -66 16.5t-67 16.5q-15 0 -33 -6 q-21 0 -71 4t-77 4q-82 0 -112 -31q4 -35 4 -98q0 -57 -5 -119.5t-10.5 -125.5t-5.5 -120q0 -92 17 -176q-21 -22 -21 -61q0 -15 6 -50t6 -53q2 -53 2 -126t3 -165t11 -157.5t21 -126.5q2 -23 2 -70q0 -39 15 -57h-260q4 49 24.5 142.5t20.5 150.5q0 43 -9 78q9 52 12 108.5 t3 134.5q0 71 8 140q-14 50 -14 129q1 24 2 50.5t2 50.5t1.5 40t0.5 47q0 79 -15 129q7 14 7 29q0 12 -3.5 25.5t-6.5 22t-5 19.5q-4 22 -4 35q1 12 2 26t2 27.5t1.5 21.5t0.5 24q0 70 -39 104q-43 0 -140 -13.5t-138 -13.5q-16 2 -26.5 2.5t-22.5 1.5q-39 -11 -125 -26 t-137 -33q-12 0 -28.5 -13.5t-27.5 -13.5q-2 2 -5.5 3t-6.5 2z" />
<glyph unicode="U" horiz-adv-x="1499" d="M0 1610l14 28q30 1 54 1.5t63 0.5q57 0 100 -16q0 -78 -16 -204t-16 -179q0 -21 4 -65q8 -72 8 -160q0 -62 -0.5 -99.5t-1.5 -82.5q0 -74 6.5 -135t24.5 -117q-9 -19 -9 -39q0 -22 25 -66t25 -76q0 -15 -7 -32q55 -77 111 -124t178 -136q21 -21 58 -21q7 0 20 1.5t26.5 3 t20.5 1.5q30 0 49 -14q26 4 80 10.5t94.5 18t73.5 32.5t57 54q29 11 54 37.5t59.5 74t42.5 55.5q27 72 39.5 149.5t15 149t2.5 181.5q0 31 1 63t3.5 114.5t2.5 115.5q0 137 -29 229q4 28 4 43q0 49 -10 133t-15 84q15 8 39 8q11 0 34 -2t36 -2q29 0 49 10q43 0 51 -8 q1 -10 1.5 -18.5t0.5 -22.5q0 -37 -6 -115t-6 -118q0 -53 4 -80q0 -51 -5 -109.5t-5 -66.5q0 -59 25 -105q-25 -21 -25 -45q0 -10 11 -38.5t11 -47.5q0 -17 -12 -37q-3 -138 -6.5 -207.5t-21.5 -152.5t-60 -157t-115 -122q-37 -25 -92.5 -67.5t-104.5 -66t-104 -23.5 q-22 0 -51 6q-36 -14 -101 -20t-93 -17q-88 11 -175 38.5t-151 70.5q-18 0 -36 8.5t-21 19.5q-113 66 -173.5 181.5t-60.5 261.5q0 30 2 47q-14 22 -14 45q0 9 7 38.5t7 49.5q0 25 -14 47q16 63 16 135q0 44 -5 95t-10 101.5t-5 94.5q0 53 4 80q-23 34 -23 90q0 13 1.5 35 t3 43.5t1.5 34.5q0 55 -20 94z" />
<glyph unicode="V" horiz-adv-x="1759" d="M0 1602v22h268q22 -64 40.5 -125.5t40 -127.5t44 -118.5t58.5 -115.5q7 -45 42.5 -127.5t45.5 -112.5q31 -96 78 -201t105.5 -213t117.5 -207q9 -9 19 -18.5t18 -9.5q5 0 14 6q73 149 94.5 192.5t53 116.5t60.5 150t52 161q26 18 35 49.5l18 63t35 49.5q13 52 31.5 102 t37.5 101t37 105t25 98q21 15 26 41.5t9 56.5t22 47v37q12 8 27 8q9 0 26 -4t23 -4q16 0 27 14l145 -8q-25 -67 -73.5 -145t-93.5 -152t-66 -137q-12 -37 -54.5 -99.5t-57.5 -91t-19 -71.5q-43 -21 -55 -66.5t-25.5 -100t-50.5 -81.5q-7 -14 -46.5 -117.5t-76.5 -146.5 q-24 -37 -49.5 -90.5t-54.5 -122.5t-50.5 -112.5t-48.5 -82.5q-38 -14 -80 -14q-11 29 -34 82t-37.5 95t-20.5 77q-104 155 -143 309q-11 25 -38 57.5t-41 56t-14 50.5q0 2 5 25q-23 46 -65 144t-75 162.5t-71 115.5q0 20 -7.5 32.5t-16 22t-18.5 25.5t-10 36 q-33 48 -44.5 67t-38 66.5t-53 94.5t-52.5 84z" />
<glyph unicode="W" horiz-adv-x="2392" d="M0 1610q42 18 96 18q13 0 37.5 -1.5t50 -3t39.5 -1.5q27 0 41 2q17 -36 30.5 -105.5t25 -104.5t45.5 -64q-9 -12 -9 -31q1 -11 1.5 -20t0.5 -23q19 -7 25.5 -26t10 -54t7.5 -43q21 -29 44.5 -95t38 -98t48.5 -59q0 -41 12.5 -72.5t41 -79.5t42 -79t13.5 -66 q29 -41 46 -88t39.5 -114.5t43.5 -104.5q11 -4 19.5 -20.5t23.5 -16.5q23 20 35.5 42t18 42.5t11.5 53.5t9 51q24 36 50.5 88.5t50.5 109.5t51.5 120.5t41.5 90.5q4 28 4 39q0 42 -11.5 70.5t-44.5 99.5t-42 109q-15 33 -49.5 93t-49 87.5t-24.5 64.5q-17 15 -35 45 t-30.5 54t-26 43t-31.5 32v29h240q4 -27 22.5 -94.5t20.5 -108.5q23 -6 23 -45q0 -20 12 -26q41 -164 108 -297q66 92 123 268q0 51 11.5 80.5t45.5 109t37 119.5h201q4 -12 4 -16q0 -17 -9 -36t-26.5 -45.5t-19.5 -31.5q-25 -25 -54.5 -76t-54 -90t-55.5 -65 q-10 -46 -57.5 -132.5t-63.5 -120t-16 -83.5q0 -51 29 -98q13 -41 44 -97t55 -101.5t32 -90.5q8 -20 33 -92t51 -115.5t71 -71.5q42 54 69 124.5t59 165t67 155.5q0 24 21 54.5t22 45.5q12 41 33 91.5t37 90.5t29.5 80t17.5 86q22 26 30.5 55.5t17 79.5t23.5 82 q49 101 66 246l22 14l217 -8q-5 -19 -34 -64.5t-31 -78.5q-12 -27 -39.5 -71.5t-43 -75.5t-20.5 -64q-55 -92 -86 -150t-51 -125q-20 -14 -33 -53t-26 -79t-35 -62l8 -8q-42 -77 -86.5 -175.5t-95.5 -223t-86 -206.5t-80 -171q-12 -8 -27 -12.5t-26 -10.5q-33 60 -60.5 132 t-60.5 158.5t-59 135.5q-27 13 -34.5 48.5t-15.5 69.5t-38 46q-7 75 -72 209q-23 -41 -46.5 -93t-45 -100t-41 -85.5t-41.5 -71.5q-33 -132 -75 -240.5t-105 -194.5q-7 -2 -21 -8t-22 -6q-11 28 -32.5 73.5t-39.5 84.5t-33 78.5t-27 80.5q-33 20 -46.5 75t-18.5 65 q-39 56 -67 124.5t-60 152.5t-68 145q-70 151 -108 225q-13 15 -18 50.5t-10.5 51.5t-33.5 21q0 21 -11 40.5t-29 41.5t-26.5 37.5t-8.5 37.5q0 21 4 31q-14 9 -23.5 38t-15.5 40t-27 14q-2 25 -25 55t-26 48z" />
<glyph unicode="X" horiz-adv-x="1712" d="M0 14q18 32 54 68t65 68t43 65q29 8 48.5 26t41 48t37.5 45q19 22 86.5 94t100.5 115t67 104q18 0 34 15t25 36q0 11 5 15.5t12 6.5t13.5 5.5t6.5 9.5q0 27 12.5 45t36.5 39.5t37.5 38t13.5 39.5q0 16 -4 25q-96 80 -176 213q-36 22 -66.5 56.5t-68 80.5t-70.5 71 q-23 35 -50 61.5t-74 68.5t-73.5 69.5t-52.5 67.5q31 22 89 22q26 0 45.5 -0.5t42.5 -1.5q11 -8 30 -8q1 0 21 3t33 3q29 0 34 -35.5t30.5 -62t60 -60.5t47.5 -69q44 -50 115.5 -157.5t82.5 -123.5q18 -1 28.5 -15t23 -41.5t22.5 -39.5t25 -12q13 0 34 12q9 20 54 78.5 t51 99.5q40 37 78 92t55 101q32 25 56.5 63.5t54.5 97.5q19 13 26.5 31.5t18.5 42.5q51 10 122 10q40 0 65.5 -0.5t55.5 -1.5q-20 -34 -46.5 -65t-63.5 -76q-129 -87 -275 -303q-19 0 -27.5 -8.5t-21 -29t-24.5 -28.5q-13 -15 -58.5 -60t-67.5 -82.5t-22 -86.5 q16 -18 41 -50t47 -54.5t45 -36.5q10 -28 31.5 -53.5t45.5 -55t34 -53.5q88 -124 178 -188q0 -31 14.5 -54.5t35 -40.5t52.5 -39q24 -43 55.5 -80t74 -79t77.5 -78v-23q-33 6 -92 6q-72 0 -180 -20q0 13 -4.5 23t-10 19.5t-11 21.5t-5.5 24q-128 160 -213 311q-32 8 -49 33 t-35 66t-29 53q-77 87 -102 141q-25 6 -38 27.5t-29.5 51t-36.5 38.5q-75 -71 -133 -191q-28 -23 -46 -61.5t-31.5 -63.5t-47.5 -38q-8 -13 -56 -92t-70.5 -116t-53.5 -85.5t-76 -110.5q0 -33 -23 -51z" />
<glyph unicode="Y" horiz-adv-x="1563" d="M0 1610l8 6h268q5 -51 35 -91t62 -82.5t37 -90.5q25 -4 36 -30.5t23.5 -57t34.5 -37.5q11 -28 37 -69t41 -71t18 -59q27 -22 53 -62.5t52 -82t57 -70.5q28 12 42 29.5t42 65t49 67.5q21 27 64 109.5t83 119.5q4 14 33.5 67.5t32.5 80.5q25 34 60 109.5t56.5 111 t59.5 65.5q38 -14 78 -14q14 0 41 2t41 2q29 0 43 -4v-14q-24 -36 -82 -89.5t-85.5 -84.5t-41.5 -78q-27 -29 -65 -66.5t-60 -68t-31 -70.5q-32 -23 -55.5 -63t-53 -90.5t-59.5 -75.5q-76 -111 -108.5 -175t-32.5 -141q-14 -11 -14 -22q0 -8 8 -25t8 -26q0 -12 -16 -23 q0 -67 -0.5 -110.5t-1.5 -96.5q0 -178 39 -268q0 -13 -11 -24t-12 -13l-184 8q13 58 17.5 129.5t4.5 149.5l15 22q-9 74 -9 238q0 114 -22.5 194.5t-93.5 139.5q-2 22 -30 53t-39 46t-11 48q-42 49 -91 119.5t-98 142t-92 121.5q-14 18 -42.5 44t-51 47t-45 47.5t-41.5 60.5 z" />
<glyph unicode="Z" horiz-adv-x="1499" d="M2 14q0 43 18 77t56.5 77t55 64t24.5 55q86 78 170.5 176.5t164.5 206.5t171 235q61 55 109 119t110 165t106.5 168.5t99.5 127.5q5 7 5 12q0 10 -16 18.5t-19 12.5q-144 6 -289 6q-131 0 -249.5 -10t-215.5 -33q-41 -19 -110.5 -26t-96.5 -17q-10 78 -10 104q0 57 25 86 q39 -6 118 -6h17q42 0 78 -16q49 -5 133 -9.5t155 -4.5q105 0 368.5 13.5t395.5 14.5q0 -47 -21 -80.5t-68 -91t-58 -90.5q-29 -26 -59.5 -76.5t-47 -73t-57.5 -42.5q-11 -9 -21.5 -35t-20.5 -38.5t-32 -12.5q-52 -82 -110.5 -151.5t-145 -167.5t-141.5 -172t-94 -155 q-20 -41 -55 -82t-66 -77t-51.5 -71.5t-24.5 -82.5q87 -18 135 -26t113 -9q56 0 91 -0.5t77 -1.5q86 0 157 8.5t138 36.5q24 -6 45 -6q31 0 76.5 16.5t76.5 16.5q25 0 39 -4q22 16 48.5 21.5t65.5 8t62 7.5q-8 -23 -8 -47q0 -17 4 -49t4 -48q0 -30 -14 -55q-15 5 -40.5 6 t-53.5 2t-45 6l-957 9q-53 -11 -114 -11q-22 0 -70 2t-74 2q-36 0 -57 -2z" />
<glyph unicode="a" horiz-adv-x="991" d="M0 203q0 10 12.5 44t12.5 60q62 113 180.5 141.5t306.5 32.5q34 0 58.5 -6.5t75 -24.5t71.5 -22q24 24 24 66q0 22 -8 63t-8 55q0 90 -8 153t-39.5 119.5t-97.5 86.5q-99 22 -129 22q-31 0 -62 -8q-38 -17 -70.5 -50.5t-50.5 -72.5l-8 -196l-182 -9q0 100 61 222 q32 21 84 66.5t99 70.5q95 31 178 31q60 0 104 -17q13 8 31 8q16 0 31.5 -8t30 -19t36.5 -22.5t39 -11.5q48 -36 75 -84.5t37.5 -104.5t10.5 -124q0 -55 -5 -140t-5 -102q-11 -49 -11 -74q0 -28 13.5 -106t13.5 -133q23 -8 23 -52v-49l-176 -8q-7 14 -7 63q0 33 -16 46 q-27 -12 -74.5 -41t-84.5 -45.5t-81 -16.5q-10 0 -34 4q-47 -16 -111 -16q-77 0 -209 31q-5 27 -28.5 40t-47.5 26.5t-30 39.5q3 2 4 13.5t2 17.5q-31 12 -31 41zM207 215q3 -5 6.5 -25.5t9.5 -30t23 -12.5q0 -25 13 -33.5t46 -19.5t47 -24q116 0 210.5 32.5t154.5 98.5 q0 32 16 45q0 42 -27 72.5t-71 64.5q-120 29 -211 29q-72 0 -125 -15q-47 -43 -69.5 -80t-22.5 -102z" />
<glyph unicode="b" horiz-adv-x="1087" d="M0 1632q20 10 59 10q13 0 54 -2t73 -2q7 -17 7 -30q0 -19 -19 -64q4 -70 4 -102q0 -64 -3 -107t-9 -119t-9 -131.5t-3 -91.5q0 -80 12 -157q6 -5 20 -5q18 0 61 33t77 33q9 27 38 27q11 0 16.5 -0.5t13.5 -1.5t17.5 -2.5t16.5 -1.5q30 0 45 20q27 -6 96 -7.5t112 -8 t71 -33.5l32 8q5 -14 15 -14q4 1 7 1.5t7 0.5q7 0 12 -8l135 -115q39 -63 58.5 -127.5t19.5 -130.5q0 -94 -43 -176q-3 -9 -17 -35.5t-18 -46.5q-41 -55 -98.5 -105.5t-125.5 -86.5t-134 -46q-52 -8 -117 -8q-108 0 -197.5 33.5t-148.5 103.5q-21 3 -41 28.5t-28 53.5 q-16 30 -21.5 62.5t-11.5 81.5t-15 79q11 226 11 461q0 257 -17 445q11 12 11 30q0 13 -9.5 44t-9.5 42q0 19 14 39q-20 46 -20 129zM178 471q0 -265 158 -367q39 -24 89.5 -38.5t102.5 -14.5q92 0 160 45q0 16 11 25t27 14t30 10q8 32 50 82t55 69.5t13 57.5q0 11 -4 35 q7 33 7 55q0 52 -16.5 100.5t-53 124.5t-43.5 93q-40 15 -96 74q-33 10 -63.5 19.5t-62 16.5t-61.5 7q-53 0 -98 -29q-60 -3 -110.5 -52.5t-71.5 -111.5q-23 -115 -23 -215z" />
<glyph unicode="c" horiz-adv-x="1096" d="M0 444q0 55 20 99q-6 21 -6 39q0 39 14 62t56.5 81.5t50.5 89.5q22 14 58.5 43.5t63 44.5t62.5 21q81 67 238 67q66 0 141 -10q13 -9 57.5 -16.5t57.5 -26.5l123 -66q4 -20 38 -59t34 -76q22 -12 22 -51q-31 -14 -63 -14q-13 0 -46 4t-57 4q-10 30 -22.5 68t-28.5 68 t-43 56q-73 39 -118 57.5t-95 18.5q-37 0 -65 -10q-74 -8 -136 -50.5t-80 -107.5q-22 -6 -30 -20.5t-8 -36.5v-21q0 -33 -19 -45q-14 -110 -14 -180q0 -124 43 -213q22 -11 32 -42.5t20 -53.5t40 -27q0 -15 14 -29t29 -14q93 -41 188 -41q97 0 179 41q89 47 129 152 q72 12 90 12q19 0 39 -6q-17 -82 -85 -134t-167 -81q-28 -19 -62 -25.5t-92.5 -10.5t-75.5 -7q-121 13 -202 38t-146 85q-19 0 -41 32t-31 40q-12 2 -34 28q0 31 -15 43q-57 79 -57 180z" />
<glyph unicode="d" horiz-adv-x="1124" d="M0 487q0 48 35 82q1 44 23 76.5t65 73.5t51 51q13 12 39 38.5t49 41t55 18.5l-8 9q13 0 44.5 8.5t56.5 9.5q57 23 131 23q29 0 135 -9q50 -20 74 -20q5 -10 12 -10q2 0 8 2t12 2q85 -51 142 -113l12 12q-7 54 -9.5 105.5t-3.5 110t-1 137.5q0 127 -7 190q-12 17 -12 64 v55q0 31 -6 55q-16 29 -16 88q0 33 -4 51h186q-8 -13 -8 -34q0 -16 8 -49t8 -48q0 -28 -22 -49q0 -160 2 -268.5t6 -239.5t12 -260q-6 -51 -6 -160q0 -103 -21 -159q-23 -146 -132.5 -240t-260.5 -121q-64 -12 -127 -12q-232 0 -368 139q-110 57 -140 213q0 30 -7 77t-7 60z M184 471q0 -49 17 -162q28 -72 78 -130.5t115.5 -93t135.5 -34.5q18 10 58 12t61.5 8t34.5 33q52 9 89 48t71 77q67 107 67 289q0 45 -2 66q-20 12 -20 39q1 9 1.5 15.5t0.5 16.5q0 28 -29 35q-10 10 -44.5 54t-61 64.5t-66.5 20.5q-50 37 -123 37q-11 0 -104 -10 q-6 0 -20 -7t-19 -7q-61 -16 -107 -49.5t-76 -83.5t-34 -107q-23 -55 -23 -131z" />
<glyph unicode="e" horiz-adv-x="1083" d="M0 500q0 99 57 159q0 52 25.5 94t64.5 77t82 73q17 17 80 42t82 38q31 0 92 2t90 2q67 0 116 -8.5t85 -30.5q78 -21 180 -131q2 -8 19.5 -52t17.5 -69q0 -34 -22 -59q-84 0 -148 -2t-178 -6t-205 -4q-102 0 -200 6q-54 -65 -54 -160q0 -100 54 -201q16 -81 81 -130.5 t166 -86.5q33 -8 74 -8q92 0 173 52.5t142 144.5q-6 18 -6 32q0 48 70 48q10 0 39 -1t57 -2q0 -43 -19 -75.5t-58.5 -71t-59.5 -61.5q-128 -111 -336 -111q-137 0 -276 47q-251 131 -271 352q-14 46 -14 101zM244 709q129 -33 256 -33q129 0 252 33l14 14l8 -6q12 12 12 37 q-2 21 -20 71q-8 12 -16.5 25t-18.5 22t-20 9q-9 0 -17 -7l-35 37q-81 25 -145 25q-62 0 -143 -25q-34 -35 -61.5 -62.5t-46.5 -61t-19 -78.5z" />
<glyph unicode="f" horiz-adv-x="1085" d="M-6 838q0 36 20 36q27 -6 86 -6q41 0 68 -14q11 8 22 8q7 0 10.5 -0.5t8.5 -1.5t10.5 -2.5t9.5 -1.5q12 0 21 6v258q-8 3 -11 15.5t-3 46.5q14 7 14 20q0 6 -4 21t-4 26q36 179 141 256q9 9 16.5 23t18.5 24q18 0 25 4.5t23.5 17.5t29.5 17q86 47 196 47 q98 0 180.5 -39.5t126.5 -113.5q15 -25 20 -49.5t8.5 -66t6.5 -60.5q-53 -17 -92 -17q-50 0 -78 31v55q0 96 -33 140q-11 30 -33 37.5t-65 14t-63 21.5q-34 -11 -79 -25.5t-78 -32t-57.5 -48t-31.5 -74.5q-33 -73 -33 -180q0 -17 5 -97.5t5 -129.5q0 -51 -10 -109 q10 -39 53 -39q7 0 38.5 5t49.5 5q17 0 23 -4q31 10 63 14.5t71 7t75 5.5q0 -4 6 -4q2 0 22 7t35 7q5 0 17 -4q4 -16 4 -27q0 -21 -8.5 -55t-8.5 -53q-66 20 -124.5 28t-158.5 12.5t-138 6.5q-19 -35 -19 -94q0 -16 1.5 -36t2.5 -40.5t1.5 -37t0.5 -54.5q6 -6 6 -53 q-12 -7 -12 -15q0 -2 9.5 -15t9.5 -18q-2 -16 -2 -47q0 -35 11 -145t11 -191q19 -25 25 -61h-199q0 10 7 45.5t7 58.5q0 31 -14 58q14 79 14 147q0 51 -8 88q0 24 2 66t3.5 78t2.5 71q0 116 -28 195q-55 -4 -95.5 -6t-76 -7.5t-70.5 -19.5q0 9 -0.5 14.5t-1.5 13t-2.5 18 t-1.5 18.5z" />
<glyph unicode="g" horiz-adv-x="1079" d="M0 -35q32 97 96 162t147.5 104t190.5 64q60 57 60 162q-8 11 -27.5 15t-36 8t-24.5 18q-29 3 -55 15.5t-50.5 29t-50.5 32.5q-3 21 -26.5 57t-26.5 56q4 181 118 244q65 37 113 37q20 12 39.5 15.5t57.5 5.5t53 7q46 73 112 242q19 0 35.5 -12.5t30.5 -12.5 q5 -10 27.5 -12t27.5 -16q-57 -75 -85.5 -107t-76.5 -63q0 -11 5.5 -19t14.5 -14.5t17 -13.5q16 4 21 4q16 0 44 -19t48 -22q50 -18 82.5 -69.5t38.5 -108.5q0 -36 -9.5 -71t-27.5 -61t-43 -40q-69 -92 -226 -131q-47 -54 -68.5 -87t-21.5 -75q27 -10 47 -13.5t51.5 -6.5 t57.5 -5q282 -78 324 -239q8 -28 8 -66q0 -60 -24 -114.5t-68 -88.5q-24 -35 -61 -61t-79.5 -42.5t-96 -30t-81.5 -21.5q-70 -4 -104 -4q-127 0 -205 28q-49 0 -131 47q0 20 -15 25.5t-41 5.5q-15 15 -29 28.5t-27 31t-20 34.5t-12 41q-18 21 -18 58v69zM156 0q6 -24 6 -47 q0 -19 -0.5 -30t-1.5 -25q0 -51 30 -76q20 -102 197 -174q54 -4 82 -4q120 3 211 28q51 24 92.5 65.5t64.5 98t23 123.5q-5 9 -20.5 59t-34.5 68l-49 66q-120 88 -262 88q-88 0 -160 -41q-38 -6 -63.5 -24.5t-47 -48t-34.5 -57t-33 -69.5zM336 727q0 -21 10 -39 q5 -11 18 -52.5t28 -61.5t48 -23q47 -47 133 -47q37 0 70 6q57 18 102 94q27 59 27 129q0 98 -51 158q-30 29 -78 45t-102 16q-116 0 -166 -73q0 -23 -4.5 -38t-13.5 -38.5t-15 -43t-6 -32.5z" />
<glyph unicode="h" horiz-adv-x="981" d="M0 1624q99 21 150 21q28 0 63 -7q-23 -170 -23 -391q1 -63 2 -136.5t0 -115.5q0 -89 -6 -219l13 -14q77 64 108 87.5t84.5 47t116.5 23.5q14 14 39 14q11 0 16.5 -0.5t14.5 -1.5t22 -2.5t25 -1.5q72 0 136.5 -40t90.5 -97q45 -68 45 -189q0 -26 -0.5 -39t-1.5 -34 t-2.5 -44.5t-1.5 -42.5q0 -39 2 -57q0 -30 5 -87t9 -88t8.5 -86.5t4.5 -88.5l14 -15l-21 -20l-178 6q0 31 3.5 89t8.5 119t8 103.5t3 100.5q0 70 -8 125q0 58 -15.5 112.5t-47 99.5t-75.5 76q-9 11 -19.5 12.5t-28.5 1.5t-28.5 2t-19.5 11q-12 -12 -41 -12h-31q-22 0 -38 -8 q-67 -3 -123 -76q-25 0 -42.5 -17t-41.5 -51q-21 -80 -21 -168q0 -29 4 -78.5t8.5 -98t7.5 -83t3 -84.5q0 -14 -0.5 -23.5t-1.5 -21.5q14 -16 14 -55v-35q0 -23 6 -41q-44 -8 -98 -8q-23 1 -42.5 1.5t-51.5 0.5q2 73 5 158.5t4.5 135.5t3 127t1.5 183q8 11 8 39q0 32 -8 37 q-3 77 -4.5 197.5t-1.5 287.5q0 248 -21 412q-8 3 -11 12.5t-3 34.5z" />
<glyph unicode="i" horiz-adv-x="264" d="M-4 764q0 39 12 55q18 -12 39 -12q19 0 46.5 9.5t39.5 12.5q18 -12 37 -84q-12 -23 -12 -100.5t-13 -101.5q0 -6 3.5 -22.5t3.5 -22.5q0 -12 -11 -17q-2 -24 -2 -71q0 -46 9.5 -162t9.5 -180q3 -11 7 -20t6.5 -18.5t2.5 -19.5q-34 0 -73.5 -7t-49.5 -7q-20 0 -37 8 q0 18 9.5 83t9.5 97q0 25 -6 49l4 -4q10 24 10 56q0 14 -0.5 21.5t-1.5 18t-2.5 24t-1.5 24.5q0 27 8 51l-12 10q6 28 6 55q0 30 -4.5 56t-11.5 56t-14 67.5t-7 72.5q-4 4 -4 23zM2 1079q0 41 41 43l127 -12q-6 -25 -6 -73t-6 -70l-150 12q4 12 4 20q0 18 -5 46.5t-5 33.5z " />
<glyph unicode="j" horiz-adv-x="346" d="M-231 -313q0 18 18 26q91 5 167.5 44.5t106.5 115.5q35 66 55.5 150t20.5 159q0 60 -12 113q2 39 2 141q5 55 8 66l-16 39q4 40 4 61q0 53 -15 150t-18 151q32 0 51.5 -0.5t42.5 -1.5q37 0 72 12q-8 -96 -8 -280q0 -129 4 -387q0 -82 -2 -123q-28 -98 -60 -166t-90 -123 q-148 -185 -297 -235q-2 15 -18 46t-16 42zM84 1231q18 6 41 6q17 0 25.5 -0.5t22 -1.5t34.5 -2t43 -2q1 -28 1.5 -49.5t0.5 -44.5q0 -58 -43 -58q-5 0 -27 4q-14 6 -45 6t-47 5z" />
<glyph unicode="k" horiz-adv-x="987" d="M0 1618q37 14 102 14q37 0 58 6l63 -6q-14 -71 -16 -104.5t-9 -139t-16 -167.5q2 -33 2 -99q0 -67 -1.5 -118t-3 -85.5t-3.5 -104.5t-2 -105q0 -106 8 -189q4 -6 33 -6q9 22 33.5 34.5t44 23.5t24.5 36q31 7 50 23t57.5 52t64.5 48q76 87 179 158q21 -15 53 -15 q13 0 57.5 7.5t59.5 7.5v-27q-7 -4 -81.5 -45.5t-118 -68.5t-87.5 -64l-6 6q-35 -29 -93.5 -66.5t-84.5 -62.5q-11 -15 -11 -35q0 -21 13 -35t48 -43t44 -45q16 -7 28.5 -22t23.5 -31t23.5 -25.5t28.5 -9.5q47 -59 98.5 -101.5t146 -104.5t110.5 -74q7 -7 13.5 -14.5 t6.5 -14.5l-246 -6q-111 132 -307 315q-22 0 -37 28t-24 34q-28 20 -46.5 35t-36.5 27t-40 20q-29 -37 -29 -92q0 -21 6 -65t6 -66q0 -13 -4 -37q13 -30 13 -72v-47q0 -50 20 -80q-31 0 -52 -0.5t-46 -1.5q-59 0 -111 8q8 36 12 83t6 102t3 90q14 228 14 516q0 115 -1 173.5 t-5 153.5q-15 19 -15 37q0 14 8.5 39.5t8.5 42.5q0 21 -17 39q9 30 9 74q0 39 -7 114t-8 93q-8 3 -11 14t-3 41z" />
<glyph unicode="l" horiz-adv-x="252" d="M0 1618q24 27 66 27q16 0 54.5 -5.5t47.5 -5.5t31 4q-27 -232 -27 -508q0 -125 6 -251q-12 -78 -12 -152q0 -53 11 -181t11 -202q0 -16 -0.5 -26.5t-1.5 -22.5l21 -289q-47 -8 -96 -8q-22 1 -41.5 1.5t-55.5 0.5q0 45 4 93.5t12 124t11 118.5v182q0 100 14 162 q-8 94 -10.5 203.5t-4.5 252t-10 261.5t-30 221z" />
<glyph unicode="m" horiz-adv-x="1634" d="M0 920q10 20 45 20q11 0 35 -2t35 -2q10 0 30 4q5 8 35 8q11 -10 15 -47.5t7 -51t23 -13.5q5 0 21 4q32 46 76.5 70.5t98.5 35t110 12.5t112 5q17 -12 51.5 -23t50.5 -20q70 -63 107 -152q61 73 156.5 126.5t187.5 74.5q12 -4 37 -4q23 0 63 4h9q30 0 51 -21 q83 -11 127.5 -64t75.5 -145q-11 -67 -11 -164q0 -67 8.5 -190.5t8.5 -202.5q-4 -20 -4 -30q0 -20 13 -69t13 -81h-211q8 70 14 115.5t11 99.5t8.5 108.5t3.5 118.5q0 82 -8 150q-14 26 -14 65v39q0 45 -21 70q-5 44 -46 78.5t-91 50.5q-26 10 -62 10q-87 0 -151 -67 q-21 0 -30 -10.5t-18.5 -30.5t-17.5 -25q-90 -76 -90 -276q0 -43 4 -113q1 -41 1 -115t6 -132t22 -115l-14 -21h-183q11 63 16 127.5t7 143.5t3.5 144.5t2.5 110.5q-5 23 -11.5 92.5t-17.5 111t-43 79.5q-22 14 -50.5 40t-51 39.5t-55.5 14.5q-26 -7 -68.5 -16.5t-70 -19 t-56 -29t-51.5 -52.5q-1 -5 -19 -56.5t-25 -82.5t-7 -63q2 -31 2 -90q0 -41 -2 -115t-2 -109q0 -147 30 -270q-45 -9 -107.5 -11t-86.5 -5q-17 14 -17 26q0 8 8.5 30t8.5 46q12 214 12 340q0 293 -49 492z" />
<glyph unicode="n" horiz-adv-x="1016" d="M0 915q10 29 35 29q11 0 33.5 -7t29.5 -7q19 0 33 14l74 -8q-5 -22 -5.5 -51t-2.5 -72q23 0 40.5 9.5t39.5 28.5t42.5 32.5t38.5 15.5q89 72 232 72q120 0 209 -49h37q67 -56 91.5 -134.5t24.5 -187.5q0 -39 -4 -120t-4 -120q0 -52 5 -95t18 -81v-190h-183q-6 39 -6 80 q0 84 21 147q-4 25 -4 78q0 21 1.5 60t3 79t1.5 60q0 34 -2 51q-11 30 -15.5 92.5t-13.5 98.5t-37 57q-3 22 -17.5 32.5t-35.5 22.5t-27 27q-48 18 -100 18q-85 0 -188 -49q-70 -31 -109 -82t-52.5 -113.5t-13.5 -140.5q0 -39 4.5 -113.5t4.5 -126.5q0 -34 -2 -51 q1 -15 7.5 -61t10.5 -89t4 -77q-16 -8 -43 -8q-16 0 -49 4t-49 4q-25 0 -49 -6q2 42 5.5 102.5t7.5 138.5t5.5 136t1.5 96q0 119 -11 230.5t-38 223.5z" />
<glyph unicode="o" horiz-adv-x="1161" d="M0 442q0 195 123 330q54 58 127.5 104t156 69.5t171.5 23.5q99 0 182 -29q227 -76 299 -231q53 -79 53 -191q0 -97 -45 -246q-15 0 -18 -19.5t-11 -23.5q-51 -79 -132 -134t-177.5 -82t-196.5 -27q-44 0 -88 6q-21 0 -60 19.5t-62 19.5q-9 0 -25 -4q-40 25 -54 35.5 t-58.5 48t-73.5 65t-58 53.5q-13 64 -43 99q-10 65 -10 114zM197 485q0 -110 40.5 -213t122.5 -176q68 -55 187 -55q73 0 141 20q30 5 56 23t43 37t40.5 45.5t42.5 36.5q29 26 29 104q27 105 27 182q0 149 -82 283q-20 3 -38.5 26t-38.5 48t-42 31q-18 18 -46 25t-65.5 9.5 t-56.5 8.5q-103 -16 -185.5 -59t-109.5 -118q-21 -16 -25.5 -38t-8.5 -53.5t-21 -51.5q-10 -46 -10 -115z" />
<glyph unicode="p" horiz-adv-x="1120" d="M0 911q25 -6 70 -6q17 0 49 2t78 4q0 -16 -7.5 -51.5t-7.5 -48.5q0 -22 8 -41q19 3 37.5 15.5t35.5 30t42 42.5q55 24 115 62q59 21 115.5 26.5t154.5 5.5q82 -20 156.5 -62t107.5 -99q49 -65 76 -121t27 -119q14 -27 14 -57q0 -24 -20 -107q-14 -18 -22.5 -64t-17.5 -69 t-36 -35q-5 -29 -23 -49.5t-49.5 -44.5t-48.5 -41q-32 -15 -89 -39t-109 -38.5t-101 -18.5q-26 10 -80 15t-73 8.5t-44 23.5q-28 0 -57 11t-50.5 24.5t-53.5 33.5l-13 -20q9 -108 9 -113q0 -4 -9 -108q9 -42 12.5 -86t7.5 -85t13 -77q-2 -25 -27 -25h-26q-21 0 -29 -8 q-33 12 -115 12q13 41 13 123q0 61 22 93q-4 26 -4 59q0 21 4 39t4 26q0 24 -12 68q4 98 5 153.5t1 163.5q0 301 -39 472q9 15 9 26q0 14 -11.5 45.5t-11.5 48.5zM190 379q0 -64 21 -113q60 -84 97.5 -122t105.5 -54q54 -43 123 -43q66 0 168 49q9 14 56 50.5t58 58.5 q0 25 12 55.5t23.5 59.5t11.5 55q13 54 13 98q0 70 -19 142.5t-53 160.5q-27 0 -52.5 35.5t-35.5 40.5q-70 33 -164 33q-57 0 -100 -13q-83 -32 -149.5 -102.5t-102.5 -159.5q0 -49 -6.5 -121.5t-6.5 -109.5z" />
<glyph unicode="q" horiz-adv-x="1094" d="M0 444q0 75 12 140q18 18 26 53.5t16 67t32 51.5q13 11 36 34.5t43 35.5t44 12q14 23 42 38.5t81.5 33.5t64.5 22q15 1 32 2t33 2t26 1.5t30 0.5q70 0 109 -20h55q29 -17 49 -28t49.5 -28.5t52.5 -36.5t37 -43q9 19 10.5 42.5t4.5 49.5t12 44l150 -7 q-18 -75 -25.5 -170.5t-10.5 -242t-6 -241t-14 -179.5q17 -10 17 -39q0 -21 -9 -43q7 -80 7 -162q0 -70 20 -153q-6 -13 -6 -25q0 -11 8 -33t8 -35q0 -6 -4 -18q-21 6 -41 6q-22 0 -70 -7t-77 -7q0 140 26 207q-8 13 -8 28q0 14 8.5 40.5t8.5 43.5q0 22 -15 43q8 101 8 113 q0 16 -0.5 41.5t-1.5 60.5q-8 8 -16 8q-13 0 -34.5 -30.5t-37.5 -32.5q-113 -102 -299 -102q-99 0 -200 28q-20 20 -62.5 39t-58 27t-35.5 35q-47 39 -75 93.5t-40 114t-12 125.5zM174 461q0 -35 8 -66q2 -45 7.5 -74.5t20 -57t40.5 -44.5q7 -27 25.5 -51t54.5 -57.5 t41 -38.5q89 -35 151 -35q54 0 92 26q43 4 71.5 25.5t63.5 63t54 55.5q65 79 65 215q0 72 -17.5 147t-41.5 127q-33 57 -80 100.5t-108.5 69t-135.5 25.5q-87 -6 -154.5 -60.5t-115.5 -134.5q-4 -31 -22.5 -111.5t-18.5 -123.5z" />
<glyph unicode="r" horiz-adv-x="573" d="M45 913q0 9 4 33l158 6q1 -29 1 -102t1.5 -148t3.5 -110q19 20 36 75.5t25 69.5h7q55 115 100.5 201t106.5 164.5t141 138.5q9 27 30.5 46t53.5 37t47 28q89 81 248 92l14 -33q-3 -12 -5 -38.5t-6 -43t-16 -29.5q-14 -14 -51 -14q-20 0 -33 -6q-92 -22 -137 -35 t-94.5 -40.5t-89.5 -74.5q-92 -103 -146 -204q-13 -27 -43 -75t-41 -81q0 -13 -4.5 -22.5t-11.5 -20t-14.5 -26.5t-7.5 -29q-95 -163 -95 -387q0 -114 29 -240q0 -21 -11 -28.5t-33.5 -11.5t-25.5 -5q-21 8 -59 8q-21 0 -35 -0.5t-31 -1.5q21 56 23.5 93.5t6.5 140t18 163.5 q-14 30 -17.5 123.5t-8 142t-26.5 83.5q4 12 4 36q0 21 -8 62t-8 63z" />
<glyph unicode="s" horiz-adv-x="748" d="M0 262h139q-4 -20 -4 -26q0 -23 18 -62t19 -61q32 -26 76 -41t90 -15q44 0 86 13q29 8 57.5 29.5t38.5 45.5q0 35 15 41q0 70 -11 115.5t-53 71.5q-8 14 -30.5 21t-38 13.5t-19.5 26.5q-12 0 -25 5t-23 11.5t-17.5 9.5t-20.5 3q-87 38 -148 79t-100 99q-6 31 -6 64 q3 100 47 159q58 64 120 95.5t140 31.5q38 0 88 -10q14 -2 50 -14.5t59 -12.5q41 -44 62.5 -82.5t21.5 -89.5q-21 0 -57 -7t-46 -7q-33 0 -49 20q0 84 -28 105q-36 27 -82 47q-19 6 -37 6q-29 0 -54.5 -12.5t-54.5 -36t-43 -33.5q-20 -23 -20 -55q0 -11 3.5 -29t9.5 -40.5 t7 -26.5q11 -9 23 -28.5t18.5 -26t26.5 -9.5q100 -72 237 -110q18 -21 54.5 -39t55.5 -34.5t28 -51.5q11 -1 17.5 -10t16 -27t15.5 -25q6 -30 6 -63q0 -105 -55 -144q-1 -25 -19 -36t-44.5 -26t-33.5 -34q-73 -41 -190 -41q-116 0 -232 41q-104 79 -104 213z" />
<glyph unicode="t" horiz-adv-x="1446" d="M0 807q0 6 5 30t5 37q28 -8 98.5 -13t102.5 -13q22 27 22 72q0 23 -8 71t-8 72q0 9 4 35q4 12 4 16q0 12 -7 40t-7 46l147 -6q-22 -172 -22 -268q1 -13 1.5 -24t0.5 -28l16 -16q25 -2 76 -2q45 0 122.5 3.5t164.5 10.5t145 11q25 12 58 12q14 0 30 -0.5t37 -1.5 q13 8 29 8q10 0 16 -0.5t12 -1.5q7 0 19 4l-6 -106q-17 -4 -43 -4q-27 0 -76 14q-82 -6 -154 -6q-32 0 -86 1.5l-108 3t-86 1.5q-69 0 -150 -6q-15 -17 -18.5 -37t-5.5 -66v-190q0 -48 3.5 -97.5t14.5 -97.5t32.5 -90t53.5 -74q13 -1 22.5 -6.5t23 -16.5t20.5 -15 q63 -39 142.5 -49.5t186.5 -10.5q10 14 19 14t21.5 -7t17.5 -7q9 0 14 10q20 8 69 12.5t73 10.5t42 27q41 6 80 30.5t60 57.5q6 13 24.5 39t28.5 45.5t10 40.5q0 10 -4 26l6 53q33 7 105 7q0 -159 -99 -256q-22 -5 -43 -17t-42 -28t-46 -35q-190 -68 -411 -68q-49 0 -76 2 q-17 6 -44 10.5t-59.5 7.5t-58.5 5q-57 0 -119 53q-31 4 -55.5 22.5t-50 49.5t-37.5 43q0 36 -16 36q-13 44 -13 117q1 26 1.5 48.5t0.5 80.5q11 5 11 15q0 5 -5.5 20t-5.5 21q1 35 1.5 64.5t0.5 76.5q0 78 -30 129q-26 -7 -88 -13t-97 -20q-14 14 -14 35z" />
<glyph unicode="u" horiz-adv-x="1004" d="M0 977q14 14 25 14q6 0 18.5 -6t19.5 -8h156q-7 -23 -11 -47t-7 -58.5t-5 -61t-6 -58.5q-14 -118 -14 -242q0 -93 8 -174q24 -18 33.5 -56.5t19.5 -73t39 -54.5q65 -45 121 -70t119 -25q41 0 72 11q100 29 172 127q22 72 32.5 155t10.5 180q0 101 -10.5 199t-32.5 248 q24 12 61 12q16 0 50 -4t51 -4q10 0 34 4q-10 -96 -11.5 -170t-1.5 -196.5t-2 -202t-11 -158.5q-49 -94 -131 -164t-174 -78q-13 4 -35 4q-26 0 -67.5 -9t-57.5 -9q-28 0 -53 14q-21 9 -74 13.5t-80 10.5t-45 28q-65 17 -123.5 87t-69.5 146q9 21 9 43q0 16 -4.5 38t-4.5 36 q0 19 9 45q-3 59 -7 156.5t-9 187t-13 170.5z" />
<glyph unicode="v" horiz-adv-x="1159" d="M0 969q37 12 100 12h74q33 0 49 2q4 -44 17.5 -83.5t35.5 -85t39 -83.5q32 -21 40.5 -68t18 -87t46.5 -58q-4 -8 -4 -14q0 -13 10 -31t14 -18q22 -1 29 -13.5t13 -41t16 -38.5l75 -131q5 0 15 -4t14 -4q38 41 59 90.5t45.5 111t55.5 99.5q10 21 47 108t59 134q0 63 27 90 q9 16 10.5 54.5t7 57t31.5 21.5h168q-9 -46 -33.5 -93.5t-50.5 -87.5t-66 -98.5t-59 -95.5q-13 -25 -38.5 -71.5t-37.5 -67.5t-31 -48t-40 -50q0 -30 -11 -53t-32.5 -51t-26.5 -42q-12 -30 -28.5 -62.5t-43 -80t-47.5 -82.5q-34 0 -54 36t-38 69q-41 97 -95 198.5 t-146 257.5t-109 185q-4 34 -30.5 68.5t-57 75.5t-37.5 73z" />
<glyph unicode="w" horiz-adv-x="1737" d="M0 971h233q13 -36 46 -147t57.5 -181t60.5 -137q16 -70 38 -123t63 -133q21 11 28.5 23t24 46t31.5 46q22 45 67 134.5t82.5 159.5t77.5 134q7 30 20.5 59t37.5 70.5t34 62.5q40 0 48.5 -17t27.5 -74t45 -73q10 -44 32.5 -91t41.5 -89t26 -86q11 -21 35 -56.5t36 -60 t13 -53.5q17 -12 32.5 -44t29.5 -57t35 -34q50 91 105 200.5t87 190.5q4 21 24 75t25 85q32 97 64 198q19 -5 55 -6t72.5 -2t56.5 -6q-8 -39 -26 -67.5t-50.5 -66.5t-50.5 -64.5t-29 -63.5q-35 -52 -80 -142t-78 -154t-77 -120q-3 -7 -28 -70t-33.5 -86t-29.5 -62t-42 -66 q-30 1 -50 23.5t-35 57.5t-26 62q-13 27 -49.5 114.5t-56.5 127.5q-32 48 -58 100.5t-59.5 133.5t-46.5 110q-24 -14 -35 -29t-33.5 -54.5t-38.5 -56.5q-18 -40 -47.5 -95t-45.5 -85.5t-34 -75.5q-17 -21 -38.5 -71t-32.5 -73t-35 -46q-14 -57 -33 -96.5t-53 -53.5 q-28 19 -41 45t-30 71.5t-28 62.5q-22 71 -47 148.5t-56.5 140.5t-80.5 114q0 36 -10 58t-40 76t-36 83q-62 85 -92 156z" />
<glyph unicode="x" horiz-adv-x="1255" d="M0 -10q19 33 73.5 78.5t69.5 64.5q64 64 141 142.5t143.5 148t111.5 117.5q-56 66 -134 150t-159 162t-158 140q-4 8 -10 18t-6 19q0 12 16 19q28 -11 72 -11q15 0 39.5 1.5l49 3t36.5 1.5q56 0 88 -25.5t39 -96.5q25 -23 50.5 -61t46.5 -70t46 -52q10 -22 22.5 -38.5 t29 -32t28.5 -25.5q58 63 105 127.5t90.5 141.5t72.5 137q85 -2 143.5 -2.5t106.5 -6.5q-34 -46 -91.5 -95t-111 -96t-86.5 -93q-35 -14 -52 -33.5t-52.5 -67t-61.5 -67.5v-23q83 -100 148.5 -174t172.5 -188t192 -204t141 -153q36 -18 69.5 -44t74 -64t74.5 -68t66 -53 q77 -52 158.5 -99.5t162 -82.5t163.5 -56q60 -14 131 -14q163 0 301 78q11 19 21.5 29t32 29.5t34.5 35.5q18 48 36.5 99.5t26.5 99.5q41 0 47 -8q9 16 21 16q5 0 21 -4t30 -4q8 -17 17 -17q3 0 12.5 11.5t17.5 11.5q6 0 17 -6q-49 -239 -310 -357q-16 -18 -38 -23.5 t-44.5 -10t-39.5 -21.5q-110 -26 -224 -26q-254 0 -506 145q-27 4 -65 32t-71.5 53.5t-69.5 33.5q-49 34 -151.5 127.5t-174.5 134.5q0 32 -16 49t-49 36t-45 29t-15 35q-16 20 -61 49t-65.5 51t-20.5 60q-60 36 -99.5 79.5t-83.5 111.5q-24 8 -48.5 34t-42 48t-36 38 t-39.5 17q-198 -229 -317 -471q-47 0 -106 -4t-80 -4q-37 0 -68 8z" />
<glyph unicode="y" horiz-adv-x="874" d="M-59 969q37 14 94 14q25 0 47 -0.5t51 -1.5q13 0 23 -10l10 -10q7 -37 42 -112t44 -120q28 -42 82.5 -144t89.5 -157q-6 -9 -6 -16q0 -11 19.5 -28.5t19.5 -33.5q0 -10 -6 -22q7 -5 15.5 -21t16.5 -24.5t21 -8.5q66 112 96 173.5t37 140.5q67 90 80 233q17 16 25 40 t16 68t10 52h203q-12 -14 -32.5 -52.5t-34.5 -63.5t-40 -44v-24q-21 -14 -48 -61t-40 -60q-12 -40 -35 -91t-42.5 -89.5t-50 -100.5t-44.5 -94q-56 -126 -118 -266t-106 -264.5t-69 -257.5q-30 6 -59 6q-31 0 -77 -6.5t-75 -6.5q0 27 35 64t43 49q21 34 51 93t51 97.5 t46 67.5q18 35 43 80t40 86.5t15 77.5q0 31 -12 61q-29 28 -44 57t-42.5 95.5t-48.5 100.5t-58 59q-26 120 -139 249q-63 123 -74 140q-18 5 -26 16t-19 36t-20 34z" />
<glyph unicode="z" horiz-adv-x="1083" d="M0 10q13 54 54 104t107.5 108.5t94.5 86.5q5 30 27 51.5t51 26.5q26 32 82 90t89.5 98t55.5 87q6 14 34 22t28 23q0 5 -5 18q10 16 43 43t52.5 48t19.5 44q0 14 -8 27q-82 4 -121 4q-237 0 -512 -68q-10 25 -10 41q0 19 12 57t12 60q169 -23 406 -23q87 1 188 2t158 1 q90 0 135 -3q-19 -46 -49.5 -89.5t-70.5 -87t-80.5 -81t-81.5 -75.5q-34 -43 -89 -90.5t-85 -80t-48 -81.5q-33 -22 -57.5 -47t-57 -64.5t-63.5 -75t-55 -55.5q7 -23 28 -33t52 -14t61 -8q169 0 329.5 19.5t309.5 58.5v-150q-141 12 -305 12q-52 0 -145 -1.5t-186.5 -3 t-145.5 -1.5h-104l-15 -12z" />
<glyph unicode="&#xad;" d="M43 694q16 25 16 68q0 34 -10 82q7 12 68 12q24 -12 70 -12t69 -13q6 0 23.5 3.5t21.5 3.5q11 0 16 -11q25 -2 72 -2t163 9.5t179 9.5q11 3 20 7t18 6.5t19 2.5q0 -22 7.5 -64.5t7.5 -58.5q0 -20 -8 -37q-20 0 -85 9.5t-96 9.5q-23 0 -49 -6l4 4q-22 10 -55 10 q-14 0 -21.5 -0.5t-18.5 -1.5t-23.5 -2t-24.5 -2q-27 0 -51 8l-10 -12q-28 8 -60 8q-23 0 -43 -3.5t-50 -10t-64 -12t-64 -5.5q-12 -8 -21 -8q-8 0 -20 8z" />
<glyph unicode="&#x2000;" horiz-adv-x="828" />
<glyph unicode="&#x2001;" horiz-adv-x="1657" />
<glyph unicode="&#x2002;" horiz-adv-x="828" />
<glyph unicode="&#x2003;" horiz-adv-x="1657" />
<glyph unicode="&#x2004;" horiz-adv-x="552" />
<glyph unicode="&#x2005;" horiz-adv-x="414" />
<glyph unicode="&#x2006;" horiz-adv-x="276" />
<glyph unicode="&#x2007;" horiz-adv-x="276" />
<glyph unicode="&#x2008;" horiz-adv-x="207" />
<glyph unicode="&#x2009;" horiz-adv-x="331" />
<glyph unicode="&#x200a;" horiz-adv-x="92" />
<glyph unicode="&#x2010;" d="M43 694q16 25 16 68q0 34 -10 82q7 12 68 12q24 -12 70 -12t69 -13q6 0 23.5 3.5t21.5 3.5q11 0 16 -11q25 -2 72 -2t163 9.5t179 9.5q11 3 20 7t18 6.5t19 2.5q0 -22 7.5 -64.5t7.5 -58.5q0 -20 -8 -37q-20 0 -85 9.5t-96 9.5q-23 0 -49 -6l4 4q-22 10 -55 10 q-14 0 -21.5 -0.5t-18.5 -1.5t-23.5 -2t-24.5 -2q-27 0 -51 8l-10 -12q-28 8 -60 8q-23 0 -43 -3.5t-50 -10t-64 -12t-64 -5.5q-12 -8 -21 -8q-8 0 -20 8z" />
<glyph unicode="&#x2011;" d="M43 694q16 25 16 68q0 34 -10 82q7 12 68 12q24 -12 70 -12t69 -13q6 0 23.5 3.5t21.5 3.5q11 0 16 -11q25 -2 72 -2t163 9.5t179 9.5q11 3 20 7t18 6.5t19 2.5q0 -22 7.5 -64.5t7.5 -58.5q0 -20 -8 -37q-20 0 -85 9.5t-96 9.5q-23 0 -49 -6l4 4q-22 10 -55 10 q-14 0 -21.5 -0.5t-18.5 -1.5t-23.5 -2t-24.5 -2q-27 0 -51 8l-10 -12q-28 8 -60 8q-23 0 -43 -3.5t-50 -10t-64 -12t-64 -5.5q-12 -8 -21 -8q-8 0 -20 8z" />
<glyph unicode="&#x2012;" d="M43 694q16 25 16 68q0 34 -10 82q7 12 68 12q24 -12 70 -12t69 -13q6 0 23.5 3.5t21.5 3.5q11 0 16 -11q25 -2 72 -2t163 9.5t179 9.5q11 3 20 7t18 6.5t19 2.5q0 -22 7.5 -64.5t7.5 -58.5q0 -20 -8 -37q-20 0 -85 9.5t-96 9.5q-23 0 -49 -6l4 4q-22 10 -55 10 q-14 0 -21.5 -0.5t-18.5 -1.5t-23.5 -2t-24.5 -2q-27 0 -51 8l-10 -12q-28 8 -60 8q-23 0 -43 -3.5t-50 -10t-64 -12t-64 -5.5q-12 -8 -21 -8q-8 0 -20 8z" />
<glyph unicode="&#x2013;" horiz-adv-x="1143" d="M43 694q22 25 22 68q0 34 -14 82q10 12 92 12q32 -12 94 -12t93 -13q8 0 31.5 3.5t29.5 3.5q14 0 21 -11q34 -2 97 -2q64 0 220 9.5t241 9.5q15 3 27 7t24 6.5t26 2.5q0 -22 10 -64.5t10 -58.5q0 -20 -11 -37q-27 0 -114.5 9.5t-129.5 9.5q-31 0 -66 -6l6 4 q-30 10 -74 10q-19 0 -29 -0.5t-25 -1.5t-32 -2t-33 -2q-36 0 -69 8l-13 -12q-38 8 -81 8q-31 0 -58 -3.5t-67.5 -10t-86 -12t-86.5 -5.5q-16 -8 -28 -8q-11 0 -27 8z" />
<glyph unicode="&#x2014;" horiz-adv-x="2167" d="M43 694q43 25 43 68q0 34 -27 82q19 12 183 12q65 -12 189 -12t186 -13q16 0 63 3.5t58 3.5q30 0 43 -11q68 -2 194 -2q127 0 439.5 9.5t482.5 9.5q30 3 54 7t48.5 6.5t51.5 2.5q0 -22 20 -64.5t20 -58.5q0 -20 -22 -37q-53 0 -228.5 9.5t-258.5 9.5q-62 0 -132 -6l10 4 q-59 10 -148 10q-38 0 -58 -0.5t-49.5 -1.5t-63.5 -2t-66 -2q-73 0 -137 8l-27 -12q-76 8 -162 8q-62 0 -116 -3.5t-134.5 -10t-172.5 -12t-173 -5.5q-32 -8 -56 -8q-22 0 -54 8z" />
<glyph unicode="&#x2022;" horiz-adv-x="543" d="M41 856q0 64 30.5 116.5t82.5 83.5t116 31t117 -30.5t84 -82.5t31 -116q0 -95 -68 -163t-162 -68q-95 0 -163 68t-68 163v-2z" />
<glyph unicode="&#x2026;" horiz-adv-x="840" d="M37 164q3 1 22.5 10t33.5 14t30 5q29 0 80 -29q1 -28 1.5 -49.5t0.5 -46.5q0 -58 -43 -58q-7 0 -27 4q-12 4 -18 4t-18 -2t-19 -2q-20 0 -37 13zM326 164q7 2 37 15.5t49 13.5q29 0 80 -29q1 -28 1.5 -49.5t0.5 -46.5q0 -58 -43 -58q-7 0 -27 4q-12 4 -18 4t-18 -2 t-19 -2q-20 0 -37 13zM592 164q3 1 22.5 10t33.5 14t30 5q29 0 80 -29q1 -28 1.5 -49.5t0.5 -46.5q0 -58 -43 -58q-7 0 -27 4q-12 4 -18 4t-18 -2t-19 -2q-20 0 -37 13z" />
<glyph unicode="&#x202f;" horiz-adv-x="331" />
<glyph unicode="&#x205f;" horiz-adv-x="414" />
<glyph unicode="&#x25fc;" horiz-adv-x="1050" d="M0 0v1050h1050v-1050h-1050z" />
</font>
</defs>
</svg>
